#define file_width 64
#define file_height 64
static unsigned char file_bits[] = {
   0x00, 0x00, 0x00, 0x00, 0x00, 0x00, 0x00, 0x00, 0x00, 0x00, 0x00, 0x00,
   0x00, 0x00, 0x00, 0x00, 0x00, 0x00, 0x00, 0x00, 0x00, 0x00, 0x00, 0x00,
   0x00, 0x00, 0x00, 0x00, 0x00, 0x00, 0x00, 0x00, 0x00, 0x00, 0x00, 0x00,
   0x00, 0x00, 0x00, 0x00, 0x80, 0xff, 0xff, 0xff, 0x0f, 0x00, 0x00, 0x00,
   0x80, 0x00, 0x00, 0x00, 0xf0, 0xff, 0x03, 0x00, 0x80, 0x00, 0x00, 0x00,
   0x60, 0x00, 0x0e, 0x00, 0x80, 0x00, 0x00, 0x00, 0xc0, 0x00, 0x1a, 0x00,
   0x80, 0x00, 0x00, 0x00, 0xc0, 0x00, 0x1a, 0x00, 0x80, 0x00, 0x00, 0x00,
   0xc0, 0x01, 0x1a, 0x00, 0x80, 0x00, 0x00, 0x00, 0x40, 0x01, 0x1a, 0x00,
   0x80, 0x00, 0x00, 0x00, 0xa0, 0x02, 0x1a, 0x00, 0x80, 0x00, 0x00, 0x00,
   0x58, 0x03, 0x1a, 0x00, 0x80, 0x00, 0x00, 0x00, 0xb0, 0x06, 0x1a, 0x00,
   0x80, 0x00, 0x00, 0x00, 0x60, 0x0d, 0x1a, 0x00, 0x80, 0x00, 0x00, 0x00,
   0xc0, 0x0a, 0x1a, 0x00, 0x80, 0x00, 0x00, 0x00, 0x80, 0x15, 0x1a, 0x00,
   0x80, 0x00, 0x00, 0x00, 0x00, 0x1b, 0x1a, 0x00, 0x80, 0x00, 0x00, 0x00,
   0x00, 0x36, 0x1a, 0x00, 0x80, 0x00, 0x00, 0x00, 0x00, 0x2c, 0x1a, 0x00,
   0x80, 0x00, 0x00, 0x00, 0x00, 0x58, 0x1a, 0x00, 0x80, 0x00, 0x00, 0x00,
   0x00, 0x70, 0x1a, 0x00, 0x80, 0x00, 0x00, 0x00, 0x00, 0x60, 0x1a, 0x00,
   0x80, 0x00, 0x00, 0x00, 0x00, 0xc0, 0x1a, 0x00, 0x80, 0x00, 0x00, 0x00,
   0x00, 0xc0, 0x1a, 0x00, 0x80, 0x00, 0x00, 0x00, 0x00, 0x80, 0x1a, 0x00,
   0x80, 0x00, 0x00, 0x00, 0x00, 0x80, 0x1a, 0x00, 0x80, 0x00, 0x00, 0x00,
   0x00, 0x80, 0x1a, 0x00, 0x80, 0x00, 0x00, 0x00, 0x00, 0x80, 0x1a, 0x00,
   0x80, 0x00, 0x00, 0x00, 0x00, 0x80, 0x1a, 0x00, 0x80, 0x00, 0x00, 0x00,
   0x00, 0x80, 0x1a, 0x00, 0x80, 0x00, 0x00, 0x00, 0x00, 0x80, 0x1a, 0x00,
   0x80, 0x00, 0x00, 0x00, 0x00, 0x80, 0x1a, 0x00, 0x80, 0x00, 0x00, 0x00,
   0x00, 0x80, 0x1a, 0x00, 0x80, 0x00, 0x00, 0x00, 0x00, 0x80, 0x1a, 0x00,
   0x80, 0x00, 0x00, 0x00, 0x00, 0x80, 0x1a, 0x00, 0x80, 0x00, 0x00, 0x00,
   0x00, 0x80, 0x1a, 0x00, 0x80, 0x00, 0x00, 0x00, 0x00, 0x80, 0x1a, 0x00,
   0x80, 0x00, 0x00, 0x00, 0x00, 0x80, 0x1a, 0x00, 0x80, 0x00, 0x00, 0x00,
   0x00, 0x80, 0x1a, 0x00, 0x80, 0x00, 0x00, 0x00, 0x00, 0x80, 0x1a, 0x00,
   0x80, 0x00, 0x00, 0x00, 0x00, 0x80, 0x1a, 0x00, 0x80, 0x00, 0x00, 0x00,
   0x00, 0x80, 0x1a, 0x00, 0x80, 0x00, 0x00, 0x00, 0x00, 0x80, 0x1a, 0x00,
   0x80, 0x00, 0x00, 0x00, 0x00, 0x80, 0x1a, 0x00, 0x80, 0x00, 0x00, 0x00,
   0x00, 0x80, 0x1a, 0x00, 0x80, 0x00, 0x00, 0x00, 0x00, 0x80, 0x1a, 0x00,
   0x80, 0x00, 0x00, 0x00, 0x00, 0x80, 0x1a, 0x00, 0x80, 0x00, 0x00, 0x00,
   0x00, 0x80, 0x1a, 0x00, 0x80, 0x00, 0x00, 0x00, 0x00, 0x80, 0x1a, 0x00,
   0x80, 0x00, 0x00, 0x00, 0x00, 0x80, 0x1a, 0x00, 0x80, 0x00, 0x00, 0x00,
   0x00, 0x80, 0x1a, 0x00, 0x80, 0x00, 0x00, 0x00, 0x00, 0x80, 0x1a, 0x00,
   0x80, 0x00, 0x00, 0x00, 0x00, 0x80, 0x1a, 0x00, 0x80, 0xff, 0xff, 0xff,
   0xff, 0xff, 0x1a, 0x00, 0x80, 0x01, 0x00, 0x00, 0x00, 0x00, 0x1a, 0x00,
   0x00, 0xff, 0xff, 0xff, 0xff, 0xff, 0x1b, 0x00, 0x00, 0x03, 0x00, 0x00,
   0x00, 0x00, 0x18, 0x00, 0x00, 0xfe, 0xff, 0xff, 0xff, 0xff, 0x1f, 0x00,
   0x00, 0xfc, 0xff, 0xff, 0xff, 0xff, 0x1f, 0x00, 0x00, 0x00, 0x00, 0x00,
   0x00, 0x00, 0x00, 0x00, 0x00, 0x00, 0x00, 0x00, 0x00, 0x00, 0x00, 0x00,
   0x00, 0x00, 0x00, 0x00, 0x00, 0x00, 0x00, 0x00
};
