#define sm_file_width 16
#define sm_file_height 16
static unsigned char sm_file_bits[] = {
   0xfc, 0x3f, 0x04, 0x21, 0x04, 0x23, 0x04, 0x25, 0x04, 0x2b, 0x04, 0x3f,
   0x04, 0x30, 0x04, 0x30, 0x04, 0x30, 0x04, 0x30, 0x04, 0x30, 0x04, 0x30,
   0x04, 0x30, 0x04, 0x30, 0xfc, 0x3f, 0xfc, 0x3f};
