/* XPM */
static char * yellow_xpm [] = {
"13 13 5 1",
"   m none  c none",
".  m black  c #000000000000",
"X  m white  c #ffffffff0000",
"o  m black  c #ffffffff0000",
"O  m black  c #ffffffffffff",
"             ",
"   ......    ",
"  .XoXoX..   ",
" .XoOoXoX..  ",
".XoOOXoXoX.. ",
".oOOXoXoXo.. ",
".XOXoXoXoX.. ",
".oOXXoXoXo.. ",
".XoXoXoXoX.. ",
" .XoXoXoX... ",
"  .XoXoX...  ",
"   .......   ",
"     ....    "};
