/* XPM */
static char * audio_xpm [] = {
/* width height ncolors chars_per_pixel */
"30 23 2 1",
/* colors */
"   m white  c white",
".  m black  c black",
/* pixels */
"                              ",
"              ..              ",
"              ...             ",
"       .      ...             ",
"       .      . ..            ",
"       .      .  .            ",
"       .      .  .            ",
" ............................ ",
"       .   ....   .           ",
"       .  .....   .           ",
" ............................ ",
"    ....  .....   .           ",
"   .....   ...    .           ",
" ............................ ",
"   .....          .           ",
"    ...           .           ",
" ............................ ",
"                  .  ......   ",
"                  . ........  ",
" ............................ ",
"                     ......   ",
"                      ....    ",
"                              "};
