/* XPM */
static char * binary_xpm [] = {
/* width height ncolors chars_per_pixel */
"24 31 4 1",
/* colors */
".  s mask  m none  c none",
"   m black  c black",
"X  m white  c white",
"o  m black  c black",
/* pixels */
"                  ......",
" XXXXXXXXXXXXXXXX  .....",
" XXXXXXXXXXXXXXXX X ....",
" XXXXXXXXXXXXXXXX XX ...",
" XXXXXXXXXXXXXXXX XXX ..",
" XXXXXXXXXXXXXXXX XXXX .",
" XXXXXXXXXXXXXXXX       ",
" XXXXXXXXXXXXXXXXXXXXXX ",
" XXXXooXXXXoXXXXoXXXXXX ",
" XXXoXXoXXooXXXooXXXXXX ",
" XXXoXXoXXXoXXXXoXXXXXX ",
" XXXXooXXXoooXXoooXXXXX ",
" XXXXXXXXXXXXXXXXXXXXXX ",
" XXXXXXXXXXXXXXXXXXXXXX ",
" XXXXoXXXXooXXXXooXXXXX ",
" XXXooXXXoXXoXXoXXoXXXX ",
" XXXXoXXXoXXoXXoXXoXXXX ",
" XXXoooXXXooXXXXooXXXXX ",
" XXXXXXXXXXXXXXXXXXXXXX ",
" XXXXXXXXXXXXXXXXXXXXXX ",
" XXXXooXXXXoXXXXooXXXXX ",
" XXXoXXoXXooXXXoXXoXXXX ",
" XXXoXXoXXXoXXXoXXoXXXX ",
" XXXXooXXXoooXXXooXXXXX ",
" XXXXXXXXXXXXXXXXXXXXXX ",
" XXXXXXXXXXXXXXXXXXXXXX ",
" XXXXXXXXXXXXXXXXXXXXXX ",
" XXXXXXXXXXXXXXXXXXXXXX ",
" XXXXXXXXXXXXXXXXXXXXXX ",
" XXXXXXXXXXXXXXXXXXXXXX ",
"                        "};
