/* XPM */
static char * box_xpm [] = {
"32 32 4 1",
"   s mask m None  c None",
".  m black  c black",
"X  m white  c #8b7355",
"o  m black  c #d2b48c",
"                                ",
"                                ",
"                                ",
"                    ..          ",
"                 ...X..         ",
"               ..XXXX.X.        ",
"            ...XXXXXX.XX.       ",
"         ...XXXXXXXXX.XXX.      ",
"       ..XXXXXXXXXXXX.XXXX.     ",
"    ...XXXXXXXXXXXXXX.XXXX.     ",
"  ..XXXXXXXXXXXXXXXXX.XXXXX.    ",
"  ..XXXXXXXXXXXXXXXXX.XXXXXX.   ",
"  .o.XXXXXXXXXXXXXXX...XXXXXX.  ",
"  .o.XXXXXXXXXXXX...XX.XXXXX..  ",
"  .oo.XXXXXXXXX..XXXXXX.XX..o.  ",
"  .ooo.XXXXX...XXXXXXXX...ooo.  ",
"  .oooo.X...XXXXXXXX...oooooo.  ",
"  .ooooo.XXXXXXXXX..ooooooooo.  ",
"  .ooooo.XXXXXX...ooooooooooo.  ",
"  .oooooo.XX...oooooooooooooo.  ",
"   .oooooo..ooooooooooooooooo.  ",
"    .ooooo.oooooooooooooooooo.  ",
"    .ooooo.ooooooooooooooooo..  ",
"     .oooo.ooooooooooooooo...   ",
"      .ooo.oooooooooooo...      ",
"       .oo.ooooooooo...         ",
"        .o.ooooooo..            ",
"        .o.oooo...              ",
"         ..o...                 ",
"          ..                    ",
"                                ",
"                                "};
