/* XPM */
static char * edit_5_xpm [] = {
"24 31 4 1",
".  s mask  m none  c none",
"   m black  c black",
"X  m white  c white",
"o  m white  c #ffc125",
"                  ......",
" XXXXXXXXXXXXXXXX  .....",
" X   X  X X    XX X ....",
" XXXXXXXXXXXXXXXX XX ...",
" X X  X X   X   X XXX ..",
" XXXXXXXXXXXXXXXX XXXX .",
" X  X   X     X   XXXXX ",
" XXXXXXXXXXXXXXXX       ",
" X        X  X    XXXXX ",
" XXXXXXXXXXXXXXXXXXXXXX ",
" X    X  X    Xoo    XX ",
" XXXXXXXXXXXXXXoo XXXXX ",
" X  X  X    X  oo XXXXX ",
" XXXXXXXXXXXXXXoo XXXXX ",
" X   X    X    oo    XX ",
" XXXXXXXXXXXXXXoo XXXXX ",
" X   X   X  X  oo   XXX ",
" XXXXXXXXXXXXXXoo XXXXX ",
" X X X    X X  oo XXXXX ",
" XXXXXXXXXXXXXXoo XXXXX ",
" X   X   X   X oo X  XX ",
" XXXXXXXXXXXXXXoo XXXXX ",
" X        X  X  o    XX ",
" XXXXXXXXXXXXXXX XXXXXX ",
" X   X     X     XXXXXX ",
" XXXXXXXXXXXXXXXXXXXXXX ",
" XXXXXXXXXXXXXXXXXXXXXX ",
" XXXXXXXXXXXXXXXXXXXXXX ",
" XXXXXXXXXXXXXXXXXXXXXX ",
" XXXXXXXXXXXXXXXXXXXXXX ",
"                        "};
