/* XPM */
static char * edit_7_xpm [] = {
"24 31 4 1",
".  s mask  m none  c none",
"   m black  c black",
"X  m white  c white",
"o  m white  c #ffc125",
"                  ......",
" XXXXXXXXXXXXXXXX  .....",
" X   X  X X    XX X ....",
" XXXXXXXXXXXXXXXX XX ...",
" X X  X X   X   X XXX ..",
" XXXXXXXXXXXXXXXX XXXX .",
" X  X   X     X   XXXXX ",
" XXXXXXXXXXXXXXXX       ",
" X        X  X    XXXXX ",
" XXXXXXXXXXXXXXXXXXXXXX ",
" X    X  X    XX   oo X ",
" XXXXXXXXXXXXXXXXXXoo X ",
" X  X  X    X     Xoo X ",
" XXXXXXXXXXXXXXXXXXoo X ",
" X   X    X     X  oo X ",
" XXXXXXXXXXXXXXXXXXoo X ",
" X   X   X  X   XX oo X ",
" XXXXXXXXXXXXXXXXXXoo X ",
" X X X    X X   X Xoo X ",
" XXXXXXXXXXXXXXXXXXoo X ",
" X   X   X   X    Xoo X ",
" XXXXXXXXXXXXXXXXXXoooX ",
" X        X  X      oXX ",
" XXXXXXXXXXXXXXXXXXX XX ",
" X   X     X     XX  XX ",
" XXXXXXXXXXXXXXXXXXXXXX ",
" XXXXXXXXXXXXXXXXXXXXXX ",
" XXXXXXXXXXXXXXXXXXXXXX ",
" XXXXXXXXXXXXXXXXXXXXXX ",
" XXXXXXXXXXXXXXXXXXXXXX ",
"                        "};
