/* XPM */
static char * edit_2_xpm [] = {
"24 31 4 1",
".  s mask  m none  c none",
"   m black  c black",
"X  m white  c white",
"o  m white  c #ffc125",
"                  ......",
" XXXXXXXXXXXXXXXX  .....",
" X   X  X X    XX X ....",
" XXXXXXXXXXXXXXXX XX ...",
" X X  X X   X   X XXX ..",
" XXXXXXXXXXXXXXXX XXXX .",
" X  X   X     X   XXXXX ",
" XXXXXXXXXXXXXXXX       ",
" X        X  X    XXXXX ",
" XXXXXXXXXXXXXXXXXXXXXX ",
" X   oo  X    XX     XX ",
" XXXXoo XXXXXXXXXXXXXXX ",
" X  Xoo     X     XXXXX ",
" XXXXoo XXXXXXXXXXXXXXX ",
" X   oo   X     X    XX ",
" XXXXoo XXXXXXXXXXXXXXX ",
" X   oo  X  X   XX  XXX ",
" XXXXoo XXXXXXXXXXXXXXX ",
" X X oo   X X   X XXXXX ",
" XXXXoo XXXXXXXXXXXXXXX ",
" X   oo  X   X    X  XX ",
" XXXXoo XXXXXXXXXXXXXXX ",
" X   Xo   X  X       XX ",
" XXXXX XXXXXXXXXXXXXXXX ",
" X   X XXXXXXXXXXXXXXXX ",
" XXXXXXXXXXXXXXXXXXXXXX ",
" XXXXXXXXXXXXXXXXXXXXXX ",
" XXXXXXXXXXXXXXXXXXXXXX ",
" XXXXXXXXXXXXXXXXXXXXXX ",
" XXXXXXXXXXXXXXXXXXXXXX ",
"                        "};
