/* XPM */
static char * edit_6_xpm [] = {
"24 31 4 1",
".  s mask  m none  c none",
"   m black  c black",
"X  m white  c white",
"o  m white  c #ffc125",
"                  ......",
" XXXXXXXXXXXXXXXX  .....",
" X   X  X X    XX X ....",
" XXXXXXXXXXXXXXXX XX ...",
" X X  X X   X   X XXX ..",
" XXXXXXXXXXXXXXXX XXXX .",
" X  X   X     X   XXXXX ",
" XXXXXXXXXXXXXXXX       ",
" X        X  X    XXXXX ",
" XXXXXXXXXXXXXXXXXXXXXX ",
" X    X  X    XX  oo XX ",
" XXXXXXXXXXXXXXXXXoo XX ",
" X  X  X    X     oo XX ",
" XXXXXXXXXXXXXXXXXoo XX ",
" X   X    X     X oo XX ",
" XXXXXXXXXXXXXXXXXoo XX ",
" X   X   X  X   XXoo XX ",
" XXXXXXXXXXXXXXXXXoo XX ",
" X X X    X X   X oo XX ",
" XXXXXXXXXXXXXXXXXoo XX ",
" X   X   X   X    oo XX ",
" XXXXXXXXXXXXXXXXXoo XX ",
" X        X  X     o XX ",
" XXXXXXXXXXXXXXXXXX XXX ",
" X   X     X     XXXXXX ",
" XXXXXXXXXXXXXXXXXXXXXX ",
" XXXXXXXXXXXXXXXXXXXXXX ",
" XXXXXXXXXXXXXXXXXXXXXX ",
" XXXXXXXXXXXXXXXXXXXXXX ",
" XXXXXXXXXXXXXXXXXXXXXX ",
"                        "};
