/* XPM */
static char * edit_3_xpm [] = {
"24 31 4 1",
".  s mask  m none  c none",
"   m black  c black",
"X  m white  c white",
"o  m white  c #ffc125",
"                  ......",
" XXXXXXXXXXXXXXXX  .....",
" X   X  X X    XX X ....",
" XXXXXXXXXXXXXXXX XX ...",
" X X  X X   X   X XXX ..",
" XXXXXXXXXXXXXXXX XXXX .",
" X  X   X     X   XXXXX ",
" XXXXXXXXXXXXXXXX       ",
" X        X  X    XXXXX ",
" XXXXXXXXXXXXXXXXXXXXXX ",
" X    X  oo   XX     XX ",
" XXXXXXXXoo XXXXXXXXXXX ",
" X  X  X oo X     XXXXX ",
" XXXXXXXXoo XXXXXXXXXXX ",
" X   X   oo     X    XX ",
" XXXXXXXXoo XXXXXXXXXXX ",
" X   X   oo X   XX  XXX ",
" XXXXXXXXoo XXXXXXXXXXX ",
" X X X   oo X   X XXXXX ",
" XXXXXXXXoo XXXXXXXXXXX ",
" X   X   oo  X    X  XX ",
" XXXXXXXXoo XXXXXXXXXXX ",
" X        o  X       XX ",
" XXXXXXXXX XXXXXXXXXXXX ",
" X   X     XXXXXXXXXXXX ",
" XXXXXXXXXXXXXXXXXXXXXX ",
" XXXXXXXXXXXXXXXXXXXXXX ",
" XXXXXXXXXXXXXXXXXXXXXX ",
" XXXXXXXXXXXXXXXXXXXXXX ",
" XXXXXXXXXXXXXXXXXXXXXX ",
"                        "};
