/* XPM */
static char * edit_1_xpm [] = {
"24 31 4 1",
".  s mask  m none  c none",
"   m black  c black",
"X  m white  c white",
"o  m white  c #ffc125",
"                  ......",
" XXXXXXXXXXXXXXXX  .....",
" X   X  X X    XX X ....",
" XXXXXXXXXXXXXXXX XX ...",
" X X  X X   X   X XXX ..",
" XXXXXXXXXXXXXXXX XXXX .",
" X  X   X     X   XXXXX ",
" XXXXXXXXXXXXXXXX       ",
" X        X  X    XXXXX ",
" XXXXXXXXXXXXXXXXXXXXXX ",
" X oo X  X    XX     XX ",
" XXoo XXXXXXXXXXXXXXXXX ",
" X oo  X    X     XXXXX ",
" XXoo XXXXXXXXXXXXXXXXX ",
" X oo     X     X    XX ",
" XXoo XXXXXXXXXXXXXXXXX ",
" X oo    X  X   XX  XXX ",
" XXoo XXXXXXXXXXXXXXXXX ",
" X oo     X X   X XXXXX ",
" XXoo XXXXXXXXXXXXXXXXX ",
" X oo    X   X    X  XX ",
" XXoo XXXXXXXXXXXXXXXXX ",
" X  o     X  X       XX ",
" XXX XXXXXXXXXXXXXXXXXX ",
" X   XXXXXXXXXXXXXXXXXX ",
" XXXXXXXXXXXXXXXXXXXXXX ",
" XXXXXXXXXXXXXXXXXXXXXX ",
" XXXXXXXXXXXXXXXXXXXXXX ",
" XXXXXXXXXXXXXXXXXXXXXX ",
" XXXXXXXXXXXXXXXXXXXXXX ",
"                        "};
