/* XPM */
static char * edit_0_xpm [] = {
"24 31 4 1",
".  s mask  m none  c none",
"   m black  c black",
"X  m white  c white",
"o  m white  c #ffc125",
"                  ......",
" XXXXXXXXXXXXXXXX  .....",
" X   X  X X    XX X ....",
" XXXXXXXXXXXXXXXX XX ...",
" X X  X X   X   X XXX ..",
" XXXXXXXXXXXXXXXX XXXX .",
" X  X   X     X   XXXXX ",
" XXXXXXXXXXXXXXXX       ",
" X        X  X    XXXXX ",
" XXXXXXXXXXXXXXXXXXXXXX ",
" oo   X  X    XX     XX ",
" oo XXXXXXXXXXXXXXXXXXX ",
" oo X  X    X     XXXXX ",
" oo XXXXXXXXXXXXXXXXXXX ",
" oo  X    X     X    XX ",
" oo XXXXXXXXXXXXXXXXXXX ",
" oo  X   X  X   XX  XXX ",
" oo XXXXXXXXXXXXXXXXXXX ",
" oo  X    X X   X XXXXX ",
" oo XXXXXXXXXXXXXXXXXXX ",
" oo  X   X   X    X  XX ",
" oo XXXXXXXXXXXXXXXXXXX ",
" Xo       X  X       XX ",
" X XXXXXXXXXXXXXXXXXXXX ",
" X XXXXXXXXXXXXXXXXXXXX ",
" XXXXXXXXXXXXXXXXXXXXXX ",
" XXXXXXXXXXXXXXXXXXXXXX ",
" XXXXXXXXXXXXXXXXXXXXXX ",
" XXXXXXXXXXXXXXXXXXXXXX ",
" XXXXXXXXXXXXXXXXXXXXXX ",
"                        "};
