/* XPM */
static char * edit_4_xpm [] = {
"24 31 4 1",
".  s mask  m none  c none",
"   m black  c black",
"X  m white  c white",
"o  m white  c #ffc125",
"                  ......",
" XXXXXXXXXXXXXXXX  .....",
" X   X  X X    XX X ....",
" XXXXXXXXXXXXXXXX XX ...",
" X X  X X   X   X XXX ..",
" XXXXXXXXXXXXXXXX XXXX .",
" X  X   X     X   XXXXX ",
" XXXXXXXXXXXXXXXX       ",
" X        X  X    XXXXX ",
" XXXXXXXXXXXXXXXXXXXXXX ",
" X    X  X oo XX     XX ",
" XXXXXXXXXXoo XXXXXXXXX ",
" X  X  X   oo     XXXXX ",
" XXXXXXXXXXoo XXXXXXXXX ",
" X   X    Xoo   X    XX ",
" XXXXXXXXXXoo XXXXXXXXX ",
" X   X   X oo   XX  XXX ",
" XXXXXXXXXXoo XXXXXXXXX ",
" X X X    Xoo   X XXXXX ",
" XXXXXXXXXXoo XXXXXXXXX ",
" X   X   X oo     X  XX ",
" XXXXXXXXXXoo XXXXXXXXX ",
" X        X oX       XX ",
" XXXXXXXXXXX XXXXXXXXXX ",
" X   X     X XXXXXXXXXX ",
" XXXXXXXXXXXXXXXXXXXXXX ",
" XXXXXXXXXXXXXXXXXXXXXX ",
" XXXXXXXXXXXXXXXXXXXXXX ",
" XXXXXXXXXXXXXXXXXXXXXX ",
" XXXXXXXXXXXXXXXXXXXXXX ",
"                        "};
