/* XPM */
static char * gif_xpm [] = {
"24 31 6 1",
".  s mask m none  c none",
"   m black  c black",
"X  m white  c cyan",
"o  m white  c gray",
"O  m black  c red",
"+  m white  c green",
"                  ......",
" XXXXXXXXXXXXXXXX  .....",
" XXXXXXXXXXXXXXXX o ....",
" XXXX   XX X    X oo ...",
" XXX XXX X X XXXX ooo ..",
" XXX XXXXX X   XX oooo .",
" XXX XX  X X XXXX ooooo ",
" XXX XXX X X XXXX       ",
" XXXX   XX X XXXXXXXXXX ",
" XXXXXXXXXXXXXXXXXXXXXX ",
" XXXXXXXXXXXXXXXXXXXXXX ",
" XXXXXXXXXXXXXXX  XXXXX ",
"   XXXXXXXXXXXX o XXXXX ",
" oo XXXX XXXXX  oo XXXX ",
" ooo XX o XXX ooooo XXX ",
" oooo  ooo X oooooo X   ",
" oooooooooo ooooOOOo oo ",
" oooooooooooooOOOoOOooo ",
" ooooooooooooOOOOOoOoOo ",
" ooooooooooooOoOOOOOOOO ",
"         oooOOOOoOOoOOo ",
" ++++++++   OOOOOOOOOO  ",
" ++++++++++++OO+O OOO++ ",
" +++++++++++++O+   +O++ ",
" +++++++++++++++   ++++ ",
" +++++++++++++++   ++++ ",
" +++++++++++++++   ++++ ",
" +++++++++++++++   ++++ ",
" +++++++++++++++   ++++ ",
" ++++++++++++++++++++++ ",
"                        "};
