/* XPM */
static char * heart_1_xpm [] = {
"24 24 3 1",
"   m None  c None",
".  m black  c red",
"X  m white  c white",
"                        ",
"                        ",
"     ..          ..     ",
"   ......      ......   ",
"   ..XX..      .XX...   ",
"  ..XX....    ..X.....  ",
"  .XX......  ..X......  ",
"  .X..................  ",
"  ....................  ",
"  ....................  ",
"   ..................   ",
"   ..................   ",
"    ................    ",
"    ................    ",
"     ..............     ",
"     ..............     ",
"      ............      ",
"       ..........       ",
"        ........        ",
"         ......         ",
"          ....          ",
"           ..           ",
"                        ",
"                        "};
