/* XPM */
static char * ishmail_xpm [] = {
"96 46 4 1",
"   s mask  m white  c #d3d3d3",
".  m black  c black",
"X  m black  c yellow",
"o  m white  c #999999",
"                    .........                                                                   ",
"                 ....       ....                                                                ",
"              ...               ...              .............                                  ",
"            ..                    ..         .....................                             .",
"          ..                        ..    ............................                     .....",
"         ..                           .   ......               .............         ...........",
"        ..                             .  ...                      ............................ ",
"       ..                               .                              ....................     ",
"      ..                                 .                                        .             ",
"     ..                                   .       ..........                                   .",
"     .                                    ..  ....................                          ....",
"    .                                      .  ........................                 .........",
"    .         XXXX              XXXXX       . .                 .............XXXX..XXXX......   ",
"   .          XXXX              XXXXX       .                       .........XXXX.XXXXX...      ",
"   .         XXXXXoo            XXXXXoo      .                           ...XXXXXoXXXXXoo       ",
"  ..         XXXXXoo            XXXXXoo      .                              XXXXXoXXXXXoo       ",
"  .           oooooo            XXXXooo      .                               oooooXXXXXoo      .",
"  .          XXXXXoo   XXX      XXXXoooX    XXXX...XX....XX.....    XXX     XXXXXoXXXXXoo   ....",
"  .          XXXXX   XXXXXXX   XXXXXoXXXX   XXXX.XXXXX..XXXXX....XXXXXXXXX  XXXXX XXXXooo.......",
" ..          XXXXXooXXXXXXXXX  XXXXXXXXXXX  XXXXXXXXXXXXXXXXX...XXXXXXXXXX..XXXXX.XXXX.o......  ",
" .           XXXXooXXXXXXXXXX  XXXXXXXXXXX  XXXXXXXXXXXXXXXXXXo.XXXXXXXXXXooXXXX.oXXXXo.o..     ",
" .           XXXXooXXXXooXXXXoXXXXXXXXXXXXoXXXXXXXXXXXXXXXXXXXo XXXXooXXXXo.XXXXoXXXXXoo        ",
" .          XXXXXooXXXXXooooooXXXXXXooXXXXoXXXXXooXXXXXooXXXXooo XXoooXXXXoXXXXXoXXXXXoo        ",
" .          XXXXXooXXXXXXXXoooXXXXXooXXXXXoXXXXXooXXXXXooXXXXooo ooXXXXXXXoXXXXXoXXXXXoo       .",
" .          XXXXXooXXXXXXXXX  XXXXXooXXXXXoXXXXXoXXXXXXooXXXXoo XXXXXXXXXXoXXXXXoXXXXXoo    ....",
" .          XXXXXooXXXXXXXXXX XXXXXooXXXXXoXXXXooXXXXXooXXXXX.oXXXXXXXXXXXoXXXXXoXXXXooo .......",
" .          XXXXXoo XXXXXXXXX XXXXXooXXXXXoXXXXo.XXXXX.oXXXXXoXXXXXooXXXXXoXXXXXoXXXXo.o....... ",
"  .         XXXXooo   XXXXXXXoXXXXXooXXXXXoXXXXooXXXXXo.XXXXX.XXXXX.oXXXXX.XXXXooXXXX.o....     ",
"  .         XXXXooXXX   XXXXXoXXXXoooXXXXooXXXXo.XXXXX..XXXX.oXXXX.oXXXXX.oXXXX.XXXXXo..        ",
"  .        XXXXXooXXXXXXXXXXooXXXXoooXXXXoXXXXXooXXXXXooXXXXoXXXXXXXXXXXXoXXXXXoXXXXXoo         ",
"  .        XXXXXooXXXXXXXXXXoXXXXXooXXXXXoXXXXXooXXXXXooXXXXoXXXXXXXXXXXXoXXXXXoXXXXXoo        .",
"   .       XXXXXooXXXXXXXXXooXXXXXooXXXXXoXXXXXooXXXXXooXXXXooXXXXXXXXXXXoXXXXXoXXXXooo     ....",
"   .        oooooo ooooooooooooooooo ooooooooo.o...o.o...o.o..ooooooooooooooooooooooooo   ..... ",
"    .       oooooo oooooooooo oooooo ooooooo.oo...o.o.o...o.o..o.o.ooooooooooooooooo.o......... ",
"    .                                      .. .              ...............................    ",
"     .                                     .                      ......................        ",
"     ..                                   .                             ...........             ",
"      .                                  ..     ........                                     ...",
"       .                                .. ...................                            ..... ",
"        .                              .. .........................                   ........  ",
"         .                            ..  ...             .................................     ",
"          ..                        ...                        .......................          ",
"            ..                     ..                                  ...........              ",
"             ..                  ..                                                             ",
"               ....           ...                                                               ",
"                   ...........                                                                  "};
