/* XPM */
static char * mpg_xpm [] = {
/* width height ncolors chars_per_pixel */
"27 30 5 1",
/* colors */
"   s mask m none  c none",
".  m black  c black",
"X  m white  c #f5deb3",
"o  m white  c white",
"O  m black  c blue",
/* pixels */
"          .......          ",
"       ...XXXXXXX...       ",
"     ..XXXXXXXXXXXXX..     ",
"    .XXXXXXXXXXXXXXXXX.    ",
"   .XXXXXXXXXXXXXXXXXXX.   ",
"  .XXXXXXXXXXXXXXXXXXXXX.  ",
" .XXXXXXXXXXXXXXXX.X.X.XX. ",
" .XXXXXXXXXXXXXXX.o.o.o.X. ",
".XXXXXXXXXXXXXXX.o.oOo.o.X.",
".XXXXXX.XXXXXXX.o.oOOOOOo..",
".XXXXX.XX.XXXX.o.oOOOOoOOo.",
".XXXX.XX.XXXXXX.oOOOOOOoO..",
".XXX.XX.XXXXXX.o.oOOOOOOOo.",
".XX.XX.XXXXXXXX.oOOOOOOOO..",
".XXX.XX.XXXXXX.o.oOOOOOOOo.",
".XXXX.XX...XXXX.o.oOOOOOo..",
" .XXXX.XXXX.XXXX.o.oOo.o.. ",
" .XXXXX.XXXX.XXXX.o.o.o.X. ",
"  .XXXX..XXX.XXXXX.X.X.X.  ",
"   .XX.XXXX.XXXXXXXXXXX.   ",
"    .XX.XX.XXXXXXXXXXX.    ",
"     ..X..XXXXXXXXXX..     ",
"       .XXXXXXXXX...       ",
"        .XXXX....          ",
"         .XX.XX.           ",
"         .XX.XX.           ",
"         .XX..... ..       ",
"         .X.XXXXX..X..     ",
"        .XXXXXXXXXX.XX.    ",
"       .............X..    "};
