/* XPM */
static char * postscript_xpm [] = {
"24 31 3 1",
".  s mask m none  c none",
"X  m white  c white",
"   m black  c black",
"                  ......",
" XXXXXXXXXXXXXXXX  .....",
" XXXXX XXXXXXXXXX X ....",
" XXXXX XXXXXXXXXX XX ...",
" XXXXXXXXXXXXXXXX XXX ..",
" XXXXX XXXXXXXXXX XXXX .",
" X  X X X      XX XXXXX ",
" XXXXX XXXXXXXXXX       ",
" XXXXXXXXXXXXXXXXXXXXXX ",
" XXXXX XXXXXXXXXXXXXXXX ",
" XXXXX XXXXXXXXXXXXXXXX ",
" XXXXXXXXXXXXXXXXXXXXXX ",
" XXXX       XX     XXXX ",
" XXXXX  XX     XX   XXX ",
" XXXXX  XXX   XXXX  XXX ",
" XXXXX  XXX   XXXXXXXXX ",
" XXXXX  XX     XXXXXXXX ",
" XXXXX     XX      XXXX ",
" XXXXX  XXXXXXXXX   XXX ",
" XXXXX  XXXXXXXXXX  XXX ",
" XXXXX  XXXX  XXXX  XXX ",
" XXXXX  XXXX   XX   XXX ",
" XXXX    XXXX     XXXXX ",
" XXXXXXXXXXXXXXXXXXXXXX ",
" X                    X ",
" XXXXXXXXXXXXXXXXXXXXXX ",
" XXXXX XXXXXXXXXXXXXXXX ",
" XXXXX XXXXXXXXXXXXXXXX ",
" XXXXX XXXXXXXXXXXXXXXX ",
" XXXXXXXXXXXXXXXXXXXXXX ",
"                        "};
