#define truck1.xbm_width 32
#define truck1.xbm_height 18
static char truck1.xbm_bits[] = {
   0xff, 0xff, 0xff, 0x01, 0x01, 0x00, 0x00, 0x05, 0x01, 0x00, 0x00, 0x05,
   0x01, 0x00, 0x00, 0x3f, 0x01, 0x00, 0x00, 0x51, 0x01, 0x00, 0x00, 0x91,
   0x01, 0x00, 0x00, 0xf1, 0x01, 0x00, 0x00, 0x81, 0x01, 0x00, 0x00, 0x81,
   0x01, 0x00, 0x00, 0x81, 0xff, 0xff, 0xff, 0xff, 0x18, 0x00, 0x30, 0x18,
   0x24, 0x00, 0x48, 0x24, 0x24, 0x00, 0x48, 0x24, 0x18, 0x00, 0x30, 0x18,
   0x00, 0x00, 0x00, 0x00, 0xff, 0xff, 0xff, 0xff, 0x00, 0x00, 0x00, 0x00};
