/* XPM */
static char * richtext_xpm [] = {
"24 31 3 1",
".  s mask m none  c none",
"X  m white  c white",
"   m black  c black",
"                   .....",
" XXXXXXXXXXXXXXXXX  ....",
" XXXX            X X ...",
" XXXXXX      XX    XX ..",
" XXXXXX     XXXXX  XXX .",
" XXXXXX    XXXXXXX XXXX ",
" XXXXXX    XXXXXXX      ",
" XXXXXX    XXXXXXXX     ",
" XXXXX     XXXXXXXX     ",
" XXXXX    XXXXXXXXX     ",
" XXXXX    XXXXXXXXX     ",
" XXXXX    XXXXXXXX    X ",
" XXXX     XXXXXXXX    X ",
" XXXX     XXXXXXX    XX ",
" XXXX    XXXXXXX    XXX ",
" XXXX    XXXXX   XXXXXX ",
" XXX           XXXXXXXX ",
" XXX    XX    XXXXXXXXX ",
" XXX    XXX    XXXXXXXX ",
" XXX    XXX    XXXXXXXX ",
" XX     XXXX    XXXXXXX ",
" XX    XXXXX    XXXXXXX ",
" XX    XXXXXX    XXXXXX ",
" X     XXXXXX    XXXXXX ",
" X     XXXXXXX    XXXXX ",
" X    XXXXXXXX     XXXX ",
" X    XXXXXXXXX     XXX ",
"      XXXXXXXXX     XXX ",
"        XXXXXX        X ",
" XXXXXXXXXXXXXXXXXXXXXX ",
"                        "};
