/* XPM */
static char * text_xpm [] = {
"24 31 3 1",
".  s mask m none  c none",
"X  m white  c white",
"   m black  c black",
"                  ......",
" XXXXXXXXXXXXXXXX  .....",
" X   X  X X    XX X ....",
" XXXXXXXXXXXXXXXX XX ...",
" X X  X X   X   X XXX ..",
" XXXXXXXXXXXXXXXX XXXX .",
" X  X   X     X   XXXXX ",
" XXXXXXXXXXXXXXXX       ",
" X        X  X    XXXXX ",
" XXXXXXXXXXXXXXXXXXXXXX ",
" X    X  X    XX     XX ",
" XXXXXXXXXXXXXXXXXXXXXX ",
" X  X  X    X     XXXXX ",
" XXXXXXXXXXXXXXXXXXXXXX ",
" X   X    X     X    XX ",
" XXXXXXXXXXXXXXXXXXXXXX ",
" X   X   X  X   XX  XXX ",
" XXXXXXXXXXXXXXXXXXXXXX ",
" X X X    X X   X XXXXX ",
" XXXXXXXXXXXXXXXXXXXXXX ",
" X   X   X   X    X  XX ",
" XXXXXXXXXXXXXXXXXXXXXX ",
" X        X  X       XX ",
" XXXXXXXXXXXXXXXXXXXXXX ",
" X   X     X     XX  XX ",
" XXXXXXXXXXXXXXXXXXXXXX ",
" X     X      X     XXX ",
" XXXXXXXXXXXXXXXXXXXXXX ",
" X  X     X  X  X  XXXX ",
" XXXXXXXXXXXXXXXXXXXXXX ",
"                        "};
