/* XPM */
static char * truck_2_xpm [] = {
"32 18 6 1",
".  m None  c None",
"   m black  c black",
"X  m white  c white",
"o  m black  c blue",
"O  m white  c yellow",
"+  m black  c green",
"                         .......",
" XXXXXXXXXXXXXXXXXXXXXXX . .....",
" XXXXXXXXXXXXooXXXXXXXXX . .....",
" XXXXXXXXXXoooXXXXXXooXX      ..",
" XXXXXXXXooXXoXXXXooXXXX OOO X .",
" XXXXXXooXXXoXXXooXXXXXX OOO XX ",
" XXXXooXXXXoXXooXXXXXXXX OOO    ",
" XXooXXXXXXoooXXXXXXXXXX OOOOOO ",
" XXXXXXXXXooXXXXXXXXXXXX OOOOOO ",
" XXXXXXXXXXXXXXXXXXXXXXX OOOOOO ",
"                                ",
"...  ...............  ..........",
"..    .............    ....  ...",
"++    .............    ...    ..",
"+++  +++............  ....    ..",
"...........................  ...",
"                        ....    ",
"........................    ...."};
