/* XPM */
static char * download.xpm [] = {
/* width height num_colors chars_per_pixel */
"321 33 19 1",
/* colors */
"   m black  c #000064000000",
".  m black  c #000073320000",
"X  m black  c #00008a3c0000",
"o  m black  c #00009c280000",
"O  m black  c #0000ab840000",
"+  m black  c #0000c28e0000",
"@  m black  c #0000cf5b0000",
"#  m black  c #0000deb70000",
"$  m black  c #0000ee130000",
"%  m black  c #0000ffff0000",
"&  m black  c #ad00ff002f00",
"*  m white  c #9df9e6652978",
"=  m white  c #e0f3e3d636ae",
"-  m white  c #fcc0ffff3d70",
";  m white  c #ffffffff695a",
":  m white  c #ffffe1796969",
"?  m white  c #ffffe1e111b9",
">  m white  c #ffffaf421111",
",  m #000000  c #000000",
/* pixels */
"                     ................XXXXXXXXXXXXXXXXXooooooooooooooooOOOOOOOOOOOOOOOOO+++++++++++++++@@@@@@@@@@@@@@@@###############$$$$$$$$$$$$$$$$$%%%%%%%%%%%%%%%%%&&&&&&&&&&&&&&&&&&&****************=====================----------------------;;;;;;;;;;;;;;;;;;;;:::::::::::::::::?????????????>>>>>>>>>>>>>>>>>>>>>>>>>>",
"                     ................XXXXXXXXXXXXXXXXXooooooooooooooooOOOOOOOOOOOOOOOOO+++++++++++++++@@@@@@@@@@@@@@@@###############$$$$$$$$$$$$$$$$$%%%%%%%%%%%%%%%%%&&&&&&&&&&&&&&&&&&&****************=====================----------------------;;;;;;;;;;;;;;;;;;;;:::::::::::::::::?????????????>>>>>>>>>>>>>>>>>>>>>>>>>>",
"                     ................XXXXXXXXXXXXXXXXXooooooooooooooooOOOOOOOOOOOOOOOOO+++++++++++++++@@@@@@@@@@@@@@@@###############$$$$$$$$$$$$$$$$$%%%%%%%%%%%%%%%%%&&&&&&&&&&&&&&&&&&&****************=====================----------------------;;;;;;;;;;;;;;;;;;;;:::::::::::::::::?????????????>>>>>>>>>>>>>>>>>>>>>>>>>>",
"                     ................XXXXXXXXXXXXXXXXXooooooooooooooooOOOOOOOOOOOOOOOOO+++++++++++++++@@@@@@@@@@@@@@@@###############$$$$$$$$$$$$$$$$$%%%%%%%%%%%%%%%%%&&&&&&&&&&&&&&&&&&&****************=====================----------------------;;;;;;;;;;;;;;;;;;;;:::::::::::::::::?????????????>>>>>>>>>>>>>>>>>>>>>>>>>>",
"                     ................XXXXXXXXXXXXXXXXXooooooooooooooooOOOOOOOOOOOOOOOOO+++++++++++++++@@@@@@@@@@@@@@@@###############$$$$$$$$$$$$$$$$$%%%%%%%%%%%%%%%%%&&&&&&&&&&&&&&&&&&&****************=====================----------------------;;;;;;;;;;;;;;;;;;;;:::::::::::::::::?????????????>>>>>>>>>>>>>>>>>>>>>>>>>>",
"                     ................XXXXXXXXXXXXXXXXXooooooooooooooooOOOOOOOOOOOOOOOOO+++++++++++++++@@@@@@@@@@@@@@@@###############$$$$$$$$$$$$$$$$$%%%%%%%%%%%%%%%%%&&&&&&&&&&&&&&&&&&&****************=====================----------------------;;;;;;;;;;;;;;;;;;;;:::::::::::::::::?????????????>>>>>>>>>>>>>>>>>>>>>>>>>>",
"                     ................XXXXXXXXXXXXXXXXXooooooooooooooooOOOOOOOOOOOOOOOOO+++++++++++++++@@@@@@@@@@@@@@@@###############$$$$$$$$$$$$$$$$$%%%%%%%%%%%%%%%%%&&&&&&&&&&&&&&&&&&&****************=====================----------------------;;;;;;;;;;;;;;;;;;;;:::::::::::::::::?????????????>>>>>>>>>>>>>>>>>>>>>>>>>>",
"       ,,,,,,,,,,,,  ................XXXXXXXXXXXXXXXXXooooooooooooooooO,,,,OOOOOOOOOOOO+++++++++++++++@@@@@@@@@@,,,,@@###############$$$$$$$$$$$$$$$$$%%%%%%%%%%%%%%%%%&&&&&&&&&&&&&&&&&&&****************===============,,,,==----,,,,,,,-----------;,,,,;;;;;;;;;;;;;;;:::::::::::::::::?????????????>>>>>>>>>,,,,>>>>>>>>>>>>>",
"         ,,,      ,,,................XXXXXXXXXXXXXXXXXooooooooooooooooOoo,,OOOOOOOOOOOO+++++++++++++++@@@@@@@@@@@@,,@@###############$$$$$$$$$$$$$$$$$%%%%%%%%%%%%%%%%%&&&&&&&&&&&&&&&&&&&****************==============,,==,,=------,,,-------------;--,,;;;;;;;;;;;;;;;:::::::::::::::::?????????????>>>,,>>>>>>,,>>>>>>>>>>>>>",
"         ,,,        ,,...............XXXXXXXXXXXXXXXXXooooooooooooooooOoo,,OOOOOOOOOOOO+++++++++++++++@@@@@@@@@@@@,,@@###############$$$$$$$$$$$$$$$$$%%%%%%%%%%%%%%%%%&&&&&&&&&&&&&&&&&&&****************=============,,===,,=------,,,-------------;--,,;;;;;;;;;;;;;;;:::::::::::::::::?????????????>>>,,>>>>>>,,>>>>>>>>>>>>>",
"         ,,,        ,,,..............XXXXXXXXXXXXXXXXXooooooooooooooooOoo,,OOOOOOOOOOOO+++++++++++++++@@@@@@@@@@@@,,@@###############$$$$$$$$$$$$$$$$$%%%%%%%%%%%%%%%%%&&&&&&&&&&&&&&&&&&&****************=============,,======------,,,-------------;--,,;;;;;;;;;;;;;;;:::::::::::::::::?????????????>>>>>>>>>>>,,>>>>>>>>>>>>>",
"         ,,,        ,,,..............XXXXXXXXXXXXXXXXXooooooooooooooooOoo,,OOOOOOOOOOOO+++++++++++++++@@@@@@@@@@@@,,@@###############$$$$$$$$$$$$$$$$$%%%%%%%%%%%%%%%%%&&&&&&&&&&&&&&&&&&&****************=============,,======------,,,-------------;--,,;;;;;;;;;;;;;;;:::::::::::::::::?????????????>>>>>>>>>>>,,>>>>>>>>>>>>>",
"         ,,,         ,,,.............XXXXXXXXXXXXXXXXXooooooooooooooooOoo,,OOOOOOOOOOOO+++++++++++++++@@@@@@@@@@@@,,@@###############$$$$$$$$$$$$$$$$$%%%%%%%%%%%%%%%%%&&&&&&&&&&&&&&&&&&&****************=============,,======------,,,-------------;--,,;;;;;;;;;;;;;;;:::::::::::::::::?????????????>>>>>>>>>>>,,>>>>>>>>>>>>>",
"         ,,,         ,,,......,,,,,..X,,,,,,XX,,,,XX,,,,,,,,ooo,,,ooooOoo,,OOOOOOO,,,,,++++++++,,,,,++@@@@@@,,,,@@,,@@##########,,,,,$$$$$$$$$$$$$$,,,,,%%%%%%%,,,,,%%%&,,,,&,,,,,&&&&,,,,*****,,,********=,,,,,=====,,,,,,====------,,,------,,,,-,-;--,,;;;,,,;;;;,,,,;::,,,:::::,,,::::????,,,,,????>,,,,>>>>>>,,>>>>>>>>>>>>>",
"         ,,,         ,,,....,,,...,,,XXX,,XXXXX,,XXXXX,ooo,,o,,,,,,oooOoo,,OOOOO,,,OOO,,,++++,,,+++,,+@@@@,,,@@@,,,,@@########,,,###,,$$$$$$$$$$$,,,$$%,,,%%%,,,%%%,,,%&&&,,,,&&&,,,&&&,,&******,********,,,===,,,=====,,======------,,,-----,,---,,-;--,,;,,,,,,;;;;;,,;,,,,,,::,,,,,,:::??,,,???,,???>>>,,>>>>>>,,>>>>>>>>>>>>>",
"         ,,,         ,,,....,,.....,,XXX,,XXXXX,,XXXXX,ooo,,,oooo,,,ooOoo,,OOOOO,,OOOOO,,++++,,,++++,,@@@@,,@@@@@,,,@@########,,,####,,$$$$$$$$$$,,$$$%,,,%%%,,%%%%%,,%&&&,,,&&&&&,,&&&&,,*****,*********,,=====,,=====,,======------,,,----,,----,,-;--,,,;;;;,,,;;;;,,,::::,,,,::::,,,::??,,,????,,??>>>,,>>>>>>,,>>>>>>>>>>>>>",
"         ,,,         ,,,...,,,.....,,,XX,,XXXXX,,XXXXX,ooo,,oooooo,,ooOoo,,OOOO,,,OOOOO,,,+++,,+++++,,@@@,,,@@@@@@,,@@########,,#####,,$$$$$$$$$,,,$$$%%,,%%,,,%%%%%,,,&&&,,&&&&&&,,,&&&,,*****,********,,,=====,,,====,,======------,,,----,,-----,-;--,,;;;;;;,,;;;;,,;:::::,,::::::,,::??,,?????,,??>>>,,>>>>>>,,>>>>>>>>>>>>>",
"         ,,,         ,,,...,,.......,,XXX,,XXX,X,,XXX,oooo,,oooooo,,ooOoo,,OOOO,,OOOOOOO,,++++++++++,,@@@,,@@@@@@@,,@@###############,,$$$$$$$$$,,$$$$%%%%%%,,%%%%%%%,,&&&,,&&&&&&&,,&&&,,*****,********,,=======,,====,,======------,,,----,,,------;--,,;;;;;;,,;;;;,,;:::::,,::::::,,::?????????,,??>>>,,>>>>>>,,>>>>>>>>>>>>>",
"         ,,,         ,,,...,,.......,,XXX,,XXX,X,,XXX,oooo,,oooooo,,ooOoo,,OOOO,,OOOOOOO,,+++++++,,,,,@@@,,@@@@@@@,,@@############,,,,,$$$$$$$$$,,$$$$%%%%%%,,%%%%%%%,,&&&,,&&&&&&&,,&&&&,,***,*********,,=======,,====,,======------,,,-----,,,,,---;--,,;;;;;;,,;;;;,,;:::::,,::::::,,::??????,,,,,??>>>,,>>>>>>,,>>>>>>>>>>>>>",
"         ,,,         ,,,...,,.......,,XXX,,XXX,X,,XXX,oooo,,oooooo,,ooOoo,,OOOO,,OOOOOOO,,++++,,,+++,,@@@,,@@@@@@@,,@@#########,,,###,,$$$$$$$$$,,$$$$%%%%%%,,%%%%%%%,,&&&,,&&&&&&&,,&&&&,,***,*********,,=======,,====,,======------,,,-------,,,,,-;--,,;;;;;;,,;;;;,,;:::::,,::::::,,::???,,,???,,??>>>,,>>>>>>,,>>>>>>>>>>>>>",
"         ,,,        ,,,....,,.......,,XXXX,,X,XXX,,X,Xoooo,,oooooo,,ooOoo,,OOOO,,OOOOOOO,,+++,,+++++,,@@@,,@@@@@@@,,@@########,,#####,,$$$$$$$$$,,$$$$%%%%%%,,%%%%%%%,,&&&,,&&&&&&&,,&&&&&,,*,**********,,=======,,====,,======------,,,----------,,,;--,,;;;;;;,,;;;;,,;:::::,,::::::,,::??,,?????,,??>>>,,>>>>>>,,>>>>>>>>>>>>>",
"         ,,,        ,,,....,,,.....,,,XXXX,,X,XXX,,X,Xoooo,,oooooo,,ooOoo,,OOOO,,,OOOOO,,,++,,++++++,,@@@,,,@@@@@@,,@@#######,,######,,$$$$$$$$$,,,$$$%%%%%%,,,%%%%%,,,&&&,,&&&&&&,,,&&&&&,,*,**********,,,=====,,,====,,======------,,,----,------,,;--,,;;;;;;,,;;;;,,;:::::,,::::::,,::?,,??????,,??>>>,,>>>>>>,,>>>>>>>>>>>>>",
"         ,,,        ,,......,,.....,,XXXXX,,X,XXX,,X,Xoooo,,oooooo,,ooOoo,,OOOOO,,OOOOO,,+++,,++++++,,@@@@,,@@@@@,,,@@#######,,######,,$$$$$$$$$$,,$$$%%%,%%%,,%%%%%,,%&&&,,,&&&&&,,&&&&&&,,*,***********,,=====,,=====,,======------,,,----,,-----,,;--,,;;;;;;,,;;;;,,;:::::,,::::::,,::?,,??????,,??>>>,,>>>>>>,,>>>>>>>>>>>>>",
"         ,,,      ,,,.......,,,...,,,XXXXXX,,XXXXX,,XXoooo,,oooooo,,ooOoo,,OOOOO,,,OOO,,,+++,,,++++,,,,,@@,,,@@@,,,,@@#######,,,####,,,,,$$$$$$$$,,,$$%%,,%%%,,,%%%,,,%&&&,,,,&&&,,,&&&&&&*,,************,,,===,,,=====,,======------,,,----,,----,,-;--,,;;;;;;,,;;;;,,;:::::,,::::::,,::?,,,????,,,,,>>>,,>>>>>>,,>>>>>>>>>>>>>",
"       ,,,,,,,,,,,,  .........,,,,,..XXXXXX,,XXXXX,,XXoo,,,,,,oo,,,,,,O,,,,,,OOOOO,,,,,++++++,,,,,,++,,@@@@@,,,,,@,,,,########,,,,,,#$,,$$$$$$$$$$$,,,,,,%%%%%%,,,,,%%%&&&,,&,,,,,&&&&&&&&*,,*************=,,,,,=====,,,,,,====----,,,,,,,--,-,,,,,--;,,,,,,;;,,,,,,,,,,,,::,,,,,,::,,,,,,??,,,,,,??,,?>,,,,,,>>,,,,,,>>>>>>>>>>>",
"                     ................XXXXXXXXXXXXXXXXXooooooooooooooooOOOOOOOOOOOOOOOOO+++++++++++++++@@@@@@@@@@@@@@@@###############$$$$$$$$$$$$$$$$$%%%%%%%%%%%%%%%%%&&&,,&&&&&&&&&&&&&&*,**************=====================----------------------;;;;;;;;;;;;;;;;;;;;:::::::::::::::::?????????????>>>>>>>>>>>>>>>>>>>>>>>>>>",
"                     ................XXXXXXXXXXXXXXXXXooooooooooooooooOOOOOOOOOOOOOOOOO+++++++++++++++@@@@@@@@@@@@@@@@###############$$$$$$$$$$$$$$$$$%%%%%%%%%%%%%%%%%&&&,,&&&&&&&&&&&&&&*,**************=====================----------------------;;;;;;;;;;;;;;;;;;;;:::::::::::::::::?????????????>>>>>>>>>>>>>>>>>>>>>>>>>>",
"                     ................XXXXXXXXXXXXXXXXXooooooooooooooooOOOOOOOOOOOOOOOOO+++++++++++++++@@@@@@@@@@@@@@@@###############$$$$$$$$$$$$$$$$$%%%%%%%%%%%%%%%%%&&&,,&&&&&&&&&,,&&&,***************=====================----------------------;;;;;;;;;;;;;;;;;;;;:::::::::::::::::?????????????>>>>>>>>>>>>>>>>>>>>>>>>>>",
"                    .................XXXXXXXXXXXXXXXXXooooooooooooooooOOOOOOOOOOOOOOOOO+++++++++++++++@@@@@@@@@@@@@@@@###############$$$$$$$$$$$$$$$$$%%%%%%%%%%%%%%%%%&&&,,&&&&&&&&&,,,&,,***************=====================----------------------;;;;;;;;;;;;;;;;;;;;:::::::::::::::::?????????????>>>>>>>>>>>>>>>>>>>>>>>>>>",
"                    .................XXXXXXXXXXXXXXXXXooooooooooooooooOOOOOOOOOOOOOOOOO+++++++++++++++@@@@@@@@@@@@@@@@###############$$$$$$$$$$$$$$$$$%%%%%%%%%%%%%%%%%&,,,,,,&&&&&&&&,,,,****************=====================----------------------;;;;;;;;;;;;;;;;;;;;:::::::::::::::::?????????????>>>>>>>>>>>>>>>>>>>>>>>>>>",
"                    .................XXXXXXXXXXXXXXXXXooooooooooooooooOOOOOOOOOOOOOOOOO+++++++++++++++@@@@@@@@@@@@@@@@###############$$$$$$$$$$$$$$$$$%%%%%%%%%%%%%%%%%&&&&&&&&&&&&&&&&&&&****************=====================----------------------;;;;;;;;;;;;;;;;;;;;:::::::::::::::::?????????????>>>>>>>>>>>>>>>>>>>>>>>>>>",
"                    .................XXXXXXXXXXXXXXXXXooooooooooooooooOOOOOOOOOOOOOOOOO+++++++++++++++@@@@@@@@@@@@@@@@###############$$$$$$$$$$$$$$$$$%%%%%%%%%%%%%%%%%&&&&&&&&&&&&&&&&&&&****************=====================----------------------;;;;;;;;;;;;;;;;;;;;:::::::::::::::::?????????????>>>>>>>>>>>>>>>>>>>>>>>>>>",
"                    XXXXXXXXXXXXXXXXXXXXXXXXXXXXXXXXXXooooooooooooooooOOOOOOOOOOOOOOOOO+++++++++++++++@@@@@@@@@@@@@@@@###############$$$$$$$$$$$$$$$$$&&&&&&&&&&&&&&&&&&&&&&&&&&&&&&&&&&&&****************=====================----------------------:::::::::::::::::::::::::::::::::::::?????????????>>>>>>>>>>>>>>>>>>>>>>>>>>"};
