/* XPM */
static char * composition_xpm [] = {
"48 48 7 1",
"   s mask  m black  c none",
".  m black  c black",
"X  m white  c white",
"o  m black  c #999999",
"O  m white  c #d2b48c",
"+  m white  c #ffc125",
"@  m black  c #cd9b1d",
"                                                ",
"                                                ",
"           ................................     ",
"           .XXXXXXXXXXXXXXXXXXXXXXXXXXXXXX.     ",
"           .XXXXXXXXXXXXXXXXXXXXXXXXXXXXXX.oo   ",
"           .XXXX.......XXXXXXXXXXXXXXXXXXX.oo   ",
"           .XXXXXXXXXXXXXXXXXXXXXXXXXXXXXX.oo   ",
"           .XXXX........XXXXXXXXXXXXXXXXXX.oo   ",
"           .XXXXXXXXXXXXXXXXXXXXXXXXXXXXXX.oo   ",
"           .XXXXXXXXXXXXXXXXXXXXXXXXXXXXXX.oo   ",
"           .XXXX....XXXXXXXXXXXXXXXXXXXXXX.oo   ",
"           .XXXXXXXXXXXXXXXXXXXXXXXXXXXXXX.oo   ",
"           .XXXXXXXXXXXXXXXXXXXXXXXXXXXXXX.oo   ",
"           .XXXXXX....................XXXX.oo   ",
"           .XXXXXXXXXXXXXXXXXXXXXXXXXXXXXX.oo   ",
"           .XXXXXXXXXXXXXXXXXXXX..XXXXXXXX.oo   ",
"           .XXXX......................XXXX.oo   ",
"           .XXXXXXXXXXXXXXXXXXXX..oXXXXXXX.oo   ",
"           .XXXXXXXXXXXXXXXXXXXX..oXXXXXXX.oo   ",
"           .XXXX...............OOOO...XXXX.oo   ",
"           .XXXXXXXXXXXXXXXXXXXOOOOoXXXXXX.oo   ",
"           .XXXXXXXXXXXXXXXXXXXOOOOoXXXXXX.oo   ",
"           .XXXX..............OOOOOO..XXXX.oo   ",
"           .XXXXXXXXXXXXXXXXXXOOOOOOoXXXXX.oo   ",
"           .XXXXXXXXXXXXXXXXXX++@+@@oXXXXX.oo   ",
"           .XXXXXXXXXXXXXXXXXX+++@@@ooXXXX.oo   ",
"           .XXXXXXXXXXXXXXXXXX++@+@@ooXXXX.oo   ",
"     .........................+++@@@..XXXX.oo   ",
"     .XXXXXXXXXXXXXXXXXXXXXXXX++@+@@o.XXXX.oo   ",
"     .XXXXXXXXXXXXXXXXXXXXXXXX+++@@@o.XXXX.oo   ",
"     .XX......XXXXXXXXXXXXXXXX++@+@@o.XXXX.oo   ",
"     .XXXXXXXXXXXXXXXXXXXXXXXX+++@@@o.XXXX.oo   ",
"     .XX.....XXXXXXXXXXXXXXXXX++@+@@o.XXXX.oo   ",
"     .XXXXXXXXXXXXXXXXXXXXXXXX+++@@@o.XXXX.oo   ",
"     .XXXXXXXXXXX..........XXX++@+@@o.XXXX.oo   ",
"     .XXXXXXXXXXXXXXXXXXXXXXXX+++@@@o.XXXX.oo   ",
"     .XXXXXXXXXXX.........XXXX++@+@@o.XXXX.oo   ",
"     .XXXXXXXXXXXXXXXXXXXXXXXX+++@@@o.XXXX.oo   ",
"     .XXXXXXXXXXX...........XX++@+@@o.XXXX.oo   ",
"     .XXXXXXXXXXXXXXXXXXXXXXXX+++@@@o.XXXX.oo   ",
"     .XXXXXXXXXXXXXXXXXXXXXXXX++@+@@o......oo   ",
"     .XXXXXXXXXXXXXXXXXXXXXXXX+++@@@o.ooooooo   ",
"     .XXXXXXXXXXXXXXXXXXXXXXXX++@+@@o.ooooooo   ",
"     .........................+++@@@..oo        ",
"       ooooooooooooooooooooooo++@+@@oooo        ",
"       ooooooooooooooooooooooo+++@@@oooo        ",
"                              ++@+@@oo          ",
"                              +++@@@oo          "};
