/* XPM */
static char * current_mime_xpm [] = {
"24 16 8 1",
"   s Mask  m None  c None",
".  m black  c black",
"X  m white  c magenta",
"o  m white  c yellow",
"O  m white  c green",
"+  m white  c cyan",
"@  m white  c blue",
"#  m white  c white",
"    ................    ",
"    .XXXoooOO++++@+.    ",
"    .XXoooOOO+++@+@.    ",
"    .XXXoooOO++++@+.    ",
"    .XXoo......+@+@.    ",
"    .XX..#@+@+#..@+.    ",
"    .X.##@+@+@+##.@.    ",
"    ..###+...+@###..    ",
"    ..###@...@+###..    ",
"    .X.##+...+@##.+.    ",
"    .XX..#+@+@#..+@.    ",
"    .XXXo......++@+.    ",
"    .XXoooOOO+++@+@.    ",
"    .XXXoooOO++++@+.    ",
"    .XXoooOOO+++@+@.    ",
"    ................    "};
