/* XPM */
static char * current_mail_xpm [] = {
"24 16 6 1",
"   s mask  m None  c None",
".  m black  c black",
"X  m white  c gray",
"o  m white  c white",
"O  m white  c #00000000ff00",
"+  m white  c cyan",
"    ................    ",
"    .XXXXXXXXXXXXXX.    ",
"    .X...XXXXXXXXXX.    ",
"    .XXXXXXXXXXXXXX.    ",
"    .XXXX......XXXX.    ",
"    .XX..oO+O+o..XX.    ",
"    .X.ooO+O+O+oo.X.    ",
"    ..ooo+...+Oooo..    ",
"    ..oooO...O+ooo..    ",
"    .X.oo+...+Ooo.X.    ",
"    .XX..o+O+Oo..XX.    ",
"    .XXX.......XXXX.    ",
"    .XXXXXXXXX...XX.    ",
"    .XXXXXXXXXXXXXX.    ",
"    .XXXXXXXXXXXXXX.    ",
"    ................    "};
