/* XPM */
static char * ishmail_question_xpm [] = {
"96 46 4 1",
"   s mask  m white  c #d3d3d3",
"X  m black  c black",
"o  m black  c green",
"O  m white  c #999999",
"                    XXXXXXXXX                                                                   ",
"                 XXXX       XXXX                                                                ",
"              XXX               XXX              XXXXXXXXXXXXX                                  ",
"            XX                    XX         XXXXXXXXXXXXXXXXXXXXX                             X",
"          XX                        XX    XXXXXXXXXXXXXXXXXXXXXXXXXXXX                     XXXXX",
"         XX                           X   XXXXXX               XXXXXXXXXXXXX         XXXXXXXXXXX",
"        XX                             X  XXX                      XXXXXXXXXXXXXXXXXXXXXXXXXXXX ",
"       XX            oooooooo           X                              XXXXXXXXXXXXXXXXXXXX     ",
"      XX           oooooooooooo          X                                        X             ",
"     XX           ooooooOOoooooo          X       XXXXXXXXXX                                   X",
"     X           ooooooOOOOoooooo         XX  XXXXXXXXXXXXXXXXXXXX                          XXXX",
"    X            ooooooOO  oooooo          X  XXXXXXXXXXXXXXXXXXXXXXXX                 XXXXXXXXX",
"    X            oooooOO   ooooooO          X XX                XXXXXXXXXXXXXXXXXXXXXXXXXXXXX   ",
"   X              ooooOO   ooooooO          X                       XXXXXXXXXXXXXXXXXXXXXX      ",
"   X              OOOOO   oooooooO           X                            XXXXXXXXXX            ",
"  XX               OOOO  oooooooOO           X                                                  ",
"  X                     oooooooOOO           X                                                 X",
"  X                    ooooooOOOO             X XXXXXXXXXXXXXXXX                            XXXX",
"  X                   ooooooOOOO              X XXXXXXXXXXXXXXXXXXXXX                    XXXXXXX",
" XX                  ooooooOOO                X  XX        XXXXXXXXXXXXXXX          XXXXXXXXXX  ",
" X                  ooooooOOO                 X                     XXXXXXXXXXXXXXXXXXXXXXX     ",
" X                  ooooooOO                  X                       XXXXXXXXXXXXXXXXX         ",
" X                  ooooooo                   X                                                 ",
" X                  ooooooooo                 X   XXX                                          X",
" X                   oooooooo                 X  XXXXXXXXXXXX                               XXXX",
" X                   OooooooOO                X  XXXXXXXXXXXXXX                          XXXXXXX",
" X                    OOOOOOOO                X      XXXXXXXXXXXXXXXXX  X           XXXXXXXXXXX ",
"  X                    OOOOOO                 X             XXXXXXXXXXXXXXXXXXXXXXXXXXXXXXX     ",
"  X                    ooo                    X                    XXXXXXXXXXXXXXXXXXXX         ",
"  X                   ooooo                  X                                                  ",
"  X                  ooooooo                 X                                                 X",
"   X                 ooooooo                 X        X X                                   XXXX",
"   X                 oooooooO               X  XXXXXXXXXXXXXXXX                           XXXXX ",
"    X                ooooooOO               X XXXXXXXXXXXXXXXXXXXXXXX                 XXXXXXXXX ",
"    X                 ooooOOO              XX X              XXXXXXXXXXXXXXXXXXXXXXXXXXXXXXX    ",
"     X                OOOOOO               X                      XXXXXXXXXXXXXXXXXXXXXX        ",
"     XX                OOOO               X                             XXXXXXXXXXX             ",
"      X                                  XX     XXXXXXXX                                     XXX",
"       X                                XX XXXXXXXXXXXXXXXXXXX                            XXXXX ",
"        X                              XX XXXXXXXXXXXXXXXXXXXXXXXXX                   XXXXXXXX  ",
"         X                            XX  XXX             XXXXXXXXXXXXXXXXXXXXXXXXXXXXXXXXX     ",
"          XX                        XXX                        XXXXXXXXXXXXXXXXXXXXX            ",
"            XX                     XX                                  XXXXXXXXXXX              ",
"             XX                  XX                                                             ",
"               XXXX           XXX                                                               ",
"                   XXXXXXXXXXX                                                                  "};
