/* XPM */
static char * ishmail_warning_xpm [] = {
"96 46 4 1",
"   s mask  m white  c #d3d3d3",
"X  m black  c black",
"o  m black  c yellow",
"O  m white  c #999999",
"                    XXXXXXXXX                                                                   ",
"                 XXXX       XXXX                                                                ",
"              XXX               XXX              XXXXXXXXXXXXX                                  ",
"            XX                    XX         XXXXXXXXXXXXXXXXXXXXX                             X",
"          XX                        XX    XXXXXXXXXXXXXXXXXXXXXXXXXXXX                     XXXXX",
"         X             XXX           XX   XXXXXX               XXXXXXXXXXXXX         XXXXXXXXXXX",
"        XX            XoooX           XX  XXX                      XXXXXXXXXXXXXXXXXXXXXXXXXXXX ",
"       XX            XooooXOO           X                              XXXXXXXXXXXXXXXXXXXX     ",
"      XX             XoooooXOO           X                                        X             ",
"     XX             XooooooXOO            X       XXXXXXXXXX                                   X",
"     X              XoooooooXOO           XX  XXXXXXXXXXXXXXXXXXXX                          XXXX",
"    X              XooooooooXOO            X  XXXXXXXXXXXXXXXXXXXXXXXX                 XXXXXXXXX",
"    X              XoooXXXoooXOO            X XX                XXXXXXXXXXXXXXXXXXXXXXXXXXXXX   ",
"   X              XoooXXXXXooXOO            X                       XXXXXXXXXXXXXXXXXXXXXX      ",
"   X              XoooXXXXXoooXOO            X                            XXXXXXXXXX            ",
"  XX             XooooXXXXXoooXOO            X                                                  ",
"  X              XooooXXXXXooooXOO           X                                                 X",
"  X             XoooooXXXXXooooXOO            X XXXXXXXXXXXXXXXX                            XXXX",
"  X             XoooooXXXXXoooooXOO           X XXXXXXXXXXXXXXXXXXXXX                    XXXXXXX",
" XX            XooooooXXXXXoooooXOO           X  XX        XXXXXXXXXXXXXXX          XXXXXXXXXX  ",
" X             XooooooXXXXXooooooXOO          X                     XXXXXXXXXXXXXXXXXXXXXXX     ",
" X            XooooooooXXXoooooooXOO          X                       XXXXXXXXXXXXXXXXX         ",
" X            XooooooooXXXooooooooXOO         X                                                 ",
" X           XoooooooooXXXooooooooXOO         X   XXX                                          X",
" X           XoooooooooXXXoooooooooXOO        X  XXXXXXXXXXXX                               XXXX",
" X          XooooooooooooooooooooooXOO        X  XXXXXXXXXXXXXX                          XXXXXXX",
" X          XooooooooooXXXooooooooooXOO       X      XXXXXXXXXXXXXXXXX  X           XXXXXXXXXXX ",
"  X        XooooooooooXXXXXoooooooooXOO       X             XXXXXXXXXXXXXXXXXXXXXXXXXXXXXXX     ",
"  X        XooooooooooXXXXXooooooooooXOO      X                    XXXXXXXXXXXXXXXXXXXX         ",
"  X       XooooooooooooXXXoooooooooooXOO     X                                                  ",
"  X       XoooooooooooooooooooooooooooXOO    X                                                 X",
"   X      XoooooooooooooooooooooooooooXOO    X        X X                                   XXXX",
"   X      XXXXXXXXXXXXXXXXXXXXXXXXXXXXXOO   X  XXXXXXXXXXXXXXXX                           XXXXX ",
"    X        OOOOOOOOOOOOOOOOOOOOOOOOOOOO   X XXXXXXXXXXXXXXXXXXXXXXX                 XXXXXXXXX ",
"    X          OOOOOOOOOOOOOOOOOOOOOOOOO   XX X              XXXXXXXXXXXXXXXXXXXXXXXXXXXXXXX    ",
"     X                                     X                      XXXXXXXXXXXXXXXXXXXXXX        ",
"     XX                                   X                             XXXXXXXXXXX             ",
"      X                                  XX     XXXXXXXX                                     XXX",
"       X                                XX XXXXXXXXXXXXXXXXXXX                            XXXXX ",
"        X                              XX XXXXXXXXXXXXXXXXXXXXXXXXX                   XXXXXXXX  ",
"         X                            XX  XXX             XXXXXXXXXXXXXXXXXXXXXXXXXXXXXXXXX     ",
"          XX                        XXX                        XXXXXXXXXXXXXXXXXXXXX            ",
"            XX                     XX                                  XXXXXXXXXXX              ",
"             XX                  XX                                                             ",
"               XXXX           XXX                                                               ",
"                   XXXXXXXXXXX                                                                  "};
