/* XPM */
static char * ishmail_error_xpm [] = {
"96 46 5 1",
"   s mask  m white  c #d3d3d3",
".  m black  c Black",
"X  m black  c Red",
"o  m black  c #cd0000",
"O  m white  c #999999",
"                    .........                                                                   ",
"                 ....       ....                                                                ",
"              ...               ...              .............                                  ",
"            ..                    ..         .....................                             .",
"          ..                        ..    ............................                     .....",
"         ..                           .   ......               .............         ...........",
"        ..                             .  ...                      ............................ ",
"       ..                               .                              ....................     ",
"      ..            XXXXXXX              .                                        .             ",
"     ..          XXXoooooooXXX            .       ..........                                   .",
"     .          XXooooooooooooX           ..  ....................                          ....",
"    .         XXXooooooooooooooXX          .  ........................                 .........",
"    .        XXoooooo.....ooooooooo         . ..                .............................   ",
"   .        XXoooo...OOOOO...oooooo.        .                       ......................      ",
"   .        XoooooXOOOOOOOOOO.ooooo.         .                            ..........            ",
"  ..       XXoooooXXOO    OOOOXooooo.        .                                                  ",
"  .       XXoooooooXX         OXooooo.       .                                                 .",
"  .       Xooo.XXoooXX          Xoooo.O       . ................                            ....",
"  .       Xooo.OXXoooXX         Xoooo.O       . .....................                    .......",
" ..      Xoooo.OOXXoooXX        Xooooo.O      .  ..        ...............          ..........  ",
" .       Xooo.OO  XXoooXX        Xoooo.OO     .                     .......................     ",
" .       Xooo.OO   XXoooXX       Xoooo.OO     .                       .................         ",
" .       Xooo.OO    XXoooXX      Xoooo.OO     .                                                 ",
" .       Xooo.OO     XXoooXX     Xoooo.OO     .   ...                                          .",
" .       Xooo.OO      XXoooXX    Xoooo.OO     .  ............                               ....",
" .       Xoooo.OO      XXoooXX  Xooooo.OO     .  ..............                          .......",
" .        Xooo.OO       XXoooXX Xoooo.OOO     .      .................  .           ........... ",
"  .       Xooo.OO        XXoooXXXoooo.OOO     .             ...............................     ",
"  .       Xoooo.O         XXooooooooo.OO      .                    ....................         ",
"  .        XooooXO         XXooooooo.OOO     .                                                  ",
"  .         XooooX          Xoooooo.OOOO     .                                                 .",
"   .        XoooooXXX     XXXoooooo.OOO      .        . .                                   ....",
"   .         ooooooooXXXXXoooooooo.OOOO     .  ................                           ..... ",
"    .        oooooooooooooooooooo.OOOO      . .......................                 ......... ",
"    .         ..ooooooooooooooo..OOOOO     .. .              ...............................    ",
"     .          .ooooooooooooo.OOOOOO      .                      ......................        ",
"     ..          ...ooooooo...OOOOOO      .                             ...........             ",
"      .           OO.......OOOOOOOO      ..     ........                                     ...",
"       .            OOOOOOOOOOOO        .. ...................                            ..... ",
"        .             OOOOOOO          .. .........................                   ........  ",
"         .                            ..  ...             .................................     ",
"          ..                        ...                        .....................            ",
"            ..                     ..                                  ...........              ",
"             ..                  ..                                                             ",
"               ....           ...                                                               ",
"                   ...........                                                                  "};
