/* XPM */
static char * ishmail_info_xpm [] = {
"96 46 4 1",
"   s mask  m white  c #d3d3d3",
"X  m black  c black",
"o  m black  c Blue",
"O  m white  c #999999",
"                    XXXXXXXXX                                                                   ",
"                 XXXX       XXXX                                                                ",
"              XXX               XXX              XXXXXXXXXXXXX                                  ",
"            XX                    XX         XXXXXXXXXXXXXXXXXXXXX                             X",
"          XX                        XX    XXXXXXXXXXXXXXXXXXXXXXXXXXXX                     XXXXX",
"         XX                           X   XXXXXX               XXXXXXXXXXXXX         XXXXXXXXXXX",
"        XX                             X  XXX                      XXXXXXXXXXXXXXXXXXXXXXXXXXXX ",
"       XX             ooo               X                              XXXXXXXXXXXXXXXXXXXX     ",
"      XX             ooooo               X                                        X             ",
"     XX             ooooooo               X       XXXXXXXXXX                                   X",
"     X              oooooooO              XX  XXXXXXXXXXXXXXXXXXXX                          XXXX",
"    X               oooooooOO              X  XXXXXXXXXXXXXXXXXXXXXXXX                 XXXXXXXXX",
"    X                oooooOOO               X XX                XXXXXXXXXXXXXXXXXXXXXXXXXXXXX   ",
"   X                  oooOOOO               X                       XXXXXXXXXXXXXXXXXXXXXX      ",
"   X                   OOOOO                 X                            XXXXXXXXXX            ",
"  XX                    OOO                  X                                                  ",
"  X                   ooooo                  X                                                 X",
"  X               ooooooooo                   X XXXXXXXXXXXXXXXX                            XXXX",
"  X               oooooooooOO                 X XXXXXXXXXXXXXXXXXXXXX                    XXXXXXX",
" XX                 OooooooOO                 X  XX        XXXXXXXXXXXXXXX          XXXXXXXXXX  ",
" X                  OooooooOO                 X                     XXXXXXXXXXXXXXXXXXXXXXX     ",
" X                   ooooooOO                 X                       XXXXXXXXXXXXXXXXX         ",
" X                   ooooooOO                 X                                                 ",
" X                   ooooooOO                 X   XXX                                          X",
" X                   ooooooOO                 X  XXXXXXXXXXXX                               XXXX",
" X                   ooooooOO                 X  XXXXXXXXXXXXXX                          XXXXXXX",
" X                   ooooooOO                 X      XXXXXXXXXXXXXXXXX  X           XXXXXXXXXXX ",
"  X                  ooooooOO                 X             XXXXXXXXXXXXXXXXXXXXXXXXXXXXXXX     ",
"  X                  ooooooOO                 X                    XXXXXXXXXXXXXXXXXXXX         ",
"  X                  ooooooOO                X                                                  ",
"  X                  ooooooOO                X                                                 X",
"   X                 ooooooOO                X        X X                                   XXXX",
"   X                 ooooooOO               X  XXXXXXXXXXXXXXXX                           XXXXX ",
"    X                ooooooOO               X XXXXXXXXXXXXXXXXXXXXXXX                 XXXXXXXXX ",
"    X             ooooooooooo              XX X              XXXXXXXXXXXXXXXXXXXXXXXXXXXXXXX    ",
"     X            ooooooooooo              X                      XXXXXXXXXXXXXXXXXXXXXX        ",
"     XX             OOOOOOOOOOO           X                             XXXXXXXXXXX             ",
"      X             OOOOOOOOOOO          XX     XXXXXXXX                                     XXX",
"       X                                XX XXXXXXXXXXXXXXXXXXX                            XXXXX ",
"        X                              XX XXXXXXXXXXXXXXXXXXXXXXXXX                   XXXXXXXX  ",
"         X                            XX  XXX             XXXXXXXXXXXXXXXXXXXXXXXXXXXXXXXXX     ",
"          XX                        XXX                        XXXXXXXXXXXXXXXXXXXXX            ",
"            XX                     XX                                  XXXXXXXXXXX              ",
"             XX                  XX                                                             ",
"               XXXX           XXX                                                               ",
"                   XXXXXXXXXXX                                                                  "};
