/* XPM */
static char * new_mime_xpm [] = {
"24 16 9 1",
"   s Mask  m None  c None",
".  m black  c black",
"X  m white  c magenta",
"o  m white  c yellow",
"O  m white  c green",
"+  m white  c cyan",
"@  m white  c blue",
"#  m white  c red",
"$  m black  c white",
"                        ",
"                        ",
"........................",
".XXXXoooooOOOO+++++@+@+.",
".X.....ooooOOOO+++@#$#@.",
".XXXXoooooOOOO+++++$#$+.",
".X.....ooooOOOO+++@#$#@.",
".XXXXoooooOOOO+++++$#$+.",
".XXXXXo...........@+@+@.",
".XXXXoooooOOOO+++++@+@+.",
".XXXXXo...........@+@+@.",
".XXXXoooooOOOO+++++@+@+.",
".XXXXXo...........@+@+@.",
".XXXXoooooOOOO+++++@+@+.",
"........................",
"                        "};
