/* XPM */
static char * partial_mime_xpm [] = {
"24 16 5 1",
"   s Mask  m None  c None",
".  m black  c black",
"X  m white  c magenta",
"o  m white  c yellow",
"O  m white  c green",
"                        ",
"                        ",
"..............          ",
".XXXXooooOOOO.          ",
".X.....oooOO.           ",
".XXXXooooOOO.           ",
".X.....oooO.            ",
".XXXXooooOO.            ",
".XXXXXoo...             ",
".XXXXooooO.             ",
".XXXXXo...              ",
".XXXXoooo.              ",
".XXXXXo..               ",
".XXXXooo.               ",
"........                ",
"                        "};
