/* XPM */
static char * reading_xpm [] = {
"48 48 4 1",
"   s mask  m none  c none",
".  m black  c black",
"X  m white  c white",
"o  m black  c #999999",
"                                                ",
"                                                ",
"           ................................     ",
"           .XXXXXXXXXXXXXXXXXXXXXXXXXXXXXX.     ",
"           .XXXXXXXXXXXXXXXXXXXXXXXXXXXXXX.oo   ",
"           .XXXX.......XXXXXXXXXXXXXXXXXXX.oo   ",
"           .XXXXXXXXXXXXXXXXXXXXXXXXXXXXXX.oo   ",
"           .XXXX........XXXXXXXXXXXXXXXXXX.oo   ",
"           .XXXXXXXXXXXXXXXXXXXXXXXXXXXXXX.oo   ",
"           .XXXXXXXXXXXXXXXXXXXXXXXXXXXXXX.oo   ",
"           .XXXX....XXXXXXXXXXXXXXXXXXXXXX.oo   ",
"           .XXXXXXXXXXXXXXXXXXXXXXXXXXXXXX.oo   ",
"           .XXXXXXXXXXXXXXXXXXXXXXXXXXXXXX.oo   ",
"           .XXXXXX....................XXXX.oo   ",
"           .XXXXXXXXXXXXXXXXXXXXXXXXXXXXXX.oo   ",
"           .XXXXXXXXXXXXXXXXXXXXXXXXXXXXXX.oo   ",
"           .XXXX......................XXXX.oo   ",
"           .XXXXXXXXXXXXXXXXXXXXXXXXXXXXXX.oo   ",
"           .XXXXXXXXXXXXXXXXXXXXXXXXXXXXXX.oo   ",
"           .XXXX......................XXXX.oo   ",
"           .XXXXXXXXXXXXXXXXXXXXXXXXXXXXXX.oo   ",
"           .XXXXXXXXXXXXXXXXXXXXXXXXXXXXXX.oo   ",
"           .XXXX......................XXXX.oo   ",
"           .XXXXXXXXXXXXXXXXXXXXXXXXXXXXXX.oo   ",
"           .XXXXXXXXXXXXXXXXXXXXXXXXXXXXXX.oo   ",
"           .XXXXXXXXXXXXXXXXXXXXXXXXXXXXXX.oo   ",
"           .XXXXXXXXXXXXXXXXXXXXXXXXXXXXXX.oo   ",
"     .................................XXXX.oo   ",
"     .XXXXXXXXXXXXXXXXXXXXXXXXXXXXXXX.XXXX.oo   ",
"     .XXXXXXXXXXXXXXXXXXXXXXXXXXXXXXX.XXXX.oo   ",
"     .XX......XXXXXXXXXXXXXXXXXXXXXXX.XXXX.oo   ",
"     .XXXXXXXXXXXX.....XXXXXXXXXXXXX.....X.oo   ",
"     .XX.....XXX.........XXXXXXXXX.........oo   ",
"     .XXXXXXXXX...XXXXX...XXXXXXX...X.XXX...o   ",
"     .XXXXXXXX..XX.X.X.X...XXXXX..XXXXXXXX...   ",
"     .XXXXXXXX.XXXXXXXXXX..X...X..XXX.XXXXX..   ",
"     .XXXXXXX..XXX.X.X.X.X.......XXXXXXXXX.o..  ",
"     .XXXXXXX..XXXXXXXXXXX..XXX..XXXX.XXXXXo..  ",
"     .XXXXXXX..XXX.X.X.X.X..XXX..XXXXXXXXX.o..  ",
"     .XXXXXXX..XXXXXXXXXXX..XXX..XXXX.XXXXXo..  ",
"     .XXXXXXX..XXXXXXXXXXX..XXX..XXXXX.X.X.o..  ",
"     .XXXXXXXX..XXXXXXXXX..XXXXX..XXX.ooooo..   ",
"     .XXXXXXXX..XXXXXXXXX..XXXXX..XXXXooooo..   ",
"     .............X.X.X.............X.oo ...    ",
"       ooooooooo.........ooooooooo.........     ",
"       ooooooooooo.....ooooooooooooo.....       ",
"                                                ",
"                                                "};
