/* XPM */
static char * read_mime_xpm [] = {
"24 16 7 1",
"   s mask  m none  c none",
".  m black  c black",
"X  m white  c magenta",
"o  m white  c yellow",
"O  m black  c green",
"+  m white  c cyan",
"@  m white  c blue",
"    ................    ",
"    .XXXoooOO++++@+.    ",
"    .X...oOOO+++@+@.    ",
"    .XXXoooOO++++@+.    ",
"    .XXoooOOO+++@+@.    ",
"    .XXXo.......+@+.    ",
"    .XXoooOOO+++@+@.    ",
"    .XX.........+@+.    ",
"    .XXoooOOO+++@+@.    ",
"    .XX.........+@+.    ",
"    .XXoooOOO+++@+@.    ",
"    .XXXoooOO++++@+.    ",
"    .XXoooOOO+...+@.    ",
"    .XXXoooOO++++@+.    ",
"    .XXoooOOO+++@+@.    ",
"    ................    "};
