/* XPM */
static char * saved_mime_xpm [] = {
"24 16 8 1",
"   s mask  m None  c None",
".  m black  c black",
"X  m white  c magenta",
"o  m white  c yellow",
"O  m white  c green",
"+  m white  c cyan",
"@  m white  c blue",
"#  m white  c #f5deb3",
"    ................    ",
"    .XXooooOO++++@+.    ",
"    .X....OOO+++@+@.    ",
"    .XXXoooOO++++@+.    ",
"  .....oooOOO+++@+@.    ",
" .#####.oooOO++++@+.    ",
".######................ ",
".######################.",
".######################.",
".######################.",
".######################.",
".######################.",
".######################.",
".######################.",
".######################.",
"........................"};
