/* XPM */
static char * sm_system_open_new_mail_xpm [] = {
"16 16 6 1",
"   s mask m None  c None",
".  m black  c black",
"X  m white  c white",
"o  m black  c red",
"O  m white  c gray",
"+  m black  c #8b7355",
"        .XXoX.  ",
"       .XXooo.. ",
"      .XXXoo.X. ",
"     .XXXXo.XX. ",
"    ...XXXoXXX. ",
"   .OO..X.oXXX. ",
"   .O.XX.XoXX.  ",
"   ..XXX.XXX.   ",
"   .XXX..XX.    ",
"   .XX.O.X.+    ",
"   .X.....++    ",
"   ..XXX.+++    ",
"  .XXXX.++++    ",
"  .XXX.+++++    ",
"   ... +++++    ",
"       +++++    "};
