/* XPM */
static char * sm_system_closed_new_mail_xpm [] = {
"16 16 5 1",
"   s mask m None  c None",
".  m black  c black",
"X  m white  c white",
"o  m black  c red",
"O  m black  c #8b7355",
"        .XXoX.  ",
"       .XXooo.. ",
"      .XXXoo.X. ",
"     .XXXXo.XX. ",
"    ...XXXoXXX. ",
"   .XXX.X.oXXX. ",
"   .XXXX.XoXX.  ",
"   .X..X.XXX.   ",
"   .XXXX.XX.    ",
"   .XXXX.X.O    ",
"   .XXXX..OO    ",
"   ......OOO    ",
"       OOOOO    ",
"       OOOOO    ",
"       OOOOO    ",
"       OOOOO    "};
