/* XPM */
static char * sm_system_open_no_mail_xpm [] = {
"16 16 6 1",
"   s mask m None  c None",
".  m black  c black",
"X  m white  c white",
"o  m black  c red",
"O  m white  c gray",
"+  m black  c #8b7355",
"        .XXXX.  ",
"       .XXXXX.. ",
"      .XXXXX.Xo ",
"     .XXXXX.Xoo ",
"    ...XXX.Xooo ",
"   .OOO.X.XoXoo ",
"   .OOOO.XoXXo  ",
"   .OOOO.XXX.   ",
"   .OOOO.XX.    ",
"   .OOOO.X.+    ",
"   .......++    ",
"   .XXXX.+++    ",
"  .XXXX.++++    ",
"  .XXX.+++++    ",
"   ... +++++    ",
"       +++++    "};
