/* XPM */
static char * sm_user_open_no_mail_xpm [] = {
"16 16 4 1",
"   s mask m None  c None",
".  m Black  c black",
"X  m White  c #d2b48c",
"o  m White  c #f5deb3",
"                ",
"                ",
"                ",
"         ...    ",
"        .XXX.   ",
"   .....XXXXX.  ",
"  .XXXXXXXXXXX. ",
" ...........XX. ",
".ooooooooooo.X. ",
".ooooooooooo.X. ",
" .ooooooooooo.. ",
" .ooooooooooo.. ",
"  .ooooooooooo. ",
"  .ooooooooooo. ",
"   ...........  ",
"                "};
