/* XPM */
static char * sm_user_open_new_mail_xpm [] = {
"16 16 5 1",
"   s mask  m None  c None",
".  m Black  c black",
"X  m white  c white",
"o  m White  c #d2b48c",
"O  m White  c #f5deb3",
"                ",
"    .......     ",
"    .XXXXX.     ",
"    .XXXXX..    ",
"    .XXX.X.o.   ",
"   ..X.X.X.oo.  ",
"  .o.X.X.X.ooo. ",
" ...........oo. ",
".OOOOOOOOOOO.o. ",
".OOOOOOOOOOO.o. ",
" .OOOOOOOOOOO.. ",
" .OOOOOOOOOOO.. ",
"  .OOOOOOOOOOO. ",
"  .OOOOOOOOOOO. ",
"   ...........  ",
"                "};
