/* XPM */
static char * sm_user_closed_new_mail_xpm [] = {
"16 16 5 1",
"   s mask  m None  c None",
".  m Black  c black",
"X  m white  c white",
"o  m white  c #d2b48c",
"O  m white  c #f5deb3",
"                ",
"    .......     ",
"    .XXXXX.     ",
"    .XXXXX..    ",
"    .X.X.X.o.   ",
"   ...........  ",
"  .OOOOOOOOOOO. ",
"  .OOOOOOOOOOO. ",
"  .OOOOOOOOOOO. ",
"  .OOOOOOOOOOO. ",
"  .OOOOOOOOOOO. ",
"  .OOOOOOOOOOO. ",
"  .OOOOOOOOOOO. ",
"  .OOOOOOOOOOO. ",
"   ...........  ",
"                "};
