/* XPM */
static char * sm_user_closed_no_mail_xpm [] = {
"16 16 4 1",
"   s mask m None  c None",
".  m Black  c black",
"X  m white  c #d2b48c",
"o  m white  c #f5deb3",
"                ",
"                ",
"                ",
"         ...    ",
"        .XXX.   ",
"   ...........  ",
"  .ooooooooooo. ",
"  .ooooooooooo. ",
"  .ooooooooooo. ",
"  .ooooooooooo. ",
"  .ooooooooooo. ",
"  .ooooooooooo. ",
"  .ooooooooooo. ",
"  .ooooooooooo. ",
"   ...........  ",
"                "};
