/* XPM */
static char * system_closed_no_mail_xpm [] = {
"48 48 7 1",
"   s mask  m none  c none",
".  m black  c black",
"X  m white  c #d3d3d3",
"o  m white  c gray",
"O  m black  c red",
"+  m black  c #8b7355",
"@  m white  c #d2b48c",
"                          .XXXXXXXXXXXXX.       ",
"                         .XXXXXXXXXXXXXXo.      ",
"                        .XXXXXXXXXXXXXXoX.      ",
"                       .XXXXXXXXXXXXXXoXoX.     ",
"                      .XXXXXXXXXXXXXXoXoXo.     ",
"                     .XXXXXXXXXXXXXXoXoXoX.     ",
"                    .XXXXXXXXXXXXXXoXoXoXo.     ",
"                   .XXXXXXXXXXXXXXoXoXoXoo.     ",
"                  .XXXXXXXXXXXXXXoXoXoXoooO     ",
"                 .XXXXXXXXXXXXXXoXoXoXoooOO     ",
"                .XXXXXXXXXXXXXXoXoXoXoooOOO     ",
"               .XXXXXXXXXXXXXXoXoXoXoooOOOO     ",
"              .......XXXXXXXXoXoXoXoooOOOOO     ",
"             .ooooooo..XXXXXoXoXoXoooOOOOOO     ",
"            .oooooooooo.XXXoXoXoXoooOOOOOOO     ",
"           .oooooooooooo.XoXoXoXoooOOOOOOOO     ",
"          .oooooooooooooo.XoXoXoooOOOOoOOOO     ",
"          .oooooooooooooo.oXoXoooOOOOooOOOO     ",
"         .ooooooooooooooo.XoXoooOOOOoooOOOO     ",
"         .oooo.......ooooo.XoooOOOOooooOOOO     ",
"         .oooooo...ooooooo.oooOOOOoooooOOOO     ",
"         .oooooooooooooooo.oooOOOooooooOOO      ",
"         .oooooooooooooooo.oooOOoooooooOO       ",
"         .oooooooooooooooo.oooOooooooo.O        ",
"         .oooooooooooooooo.oooooooooo.          ",
"         .oooooooooooooooo.ooooooooo.           ",
"         .oooooooooooooooo.oooooooo.            ",
"         .oooooooooooooooo.ooooooo.+            ",
"         .oooooooooooooooo.oooooo.@+            ",
"         .oooooooooooooooo.ooooo.@@+            ",
"         .oooooooooooooooo.oooo.@@@+            ",
"         .oooooooooooooooo.ooo.@@@@+            ",
"         .oooooooooooooooo.oo.@@@@@+            ",
"         .oooooooooooooooo.o.@@@@@@+            ",
"         .oooooooooooooooo..+@@@@@@+            ",
"         ..................++@@@@@@+            ",
"                     ++++++++@@@@@@+            ",
"                     ++++++++@@@@@@+            ",
"                     ++++++++@@@@@@+            ",
"                     ++++++++@@@@@@+            ",
"                     ++++++++@@@@@@+            ",
"                     ++++++++@@@@@@+            ",
"                     ++++++++@@@@@@+            ",
"                     ++++++++@@@@@@+            ",
"                     ++++++++@@@@@@+            ",
"                     ++++++++@@@@@@+            ",
"                     ++++++++@@@@@@+            ",
"                     ++++++++@@@@@@+            "};
