/* XPM */
static char * system_open_no_mail_xpm [] = {
"48 48 8 1",
"   s mask  m none  c none",
".  m black  c black",
"X  m white  c #d3d3d3",
"o  m white  c gray",
"O  m black  c red",
"+  m white  c #999999",
"@  m black  c #8b7355",
"#  m white  c #d2b48c",
"                          .XXXXXXXXXXXXX.       ",
"                         .XXXXXXXXXXXXXXo.      ",
"                        .XXXXXXXXXXXXXXoX.      ",
"                       .XXXXXXXXXXXXXXoXoX.     ",
"                      .XXXXXXXXXXXXXXoXoXo.     ",
"                     .XXXXXXXXXXXXXXoXoXoX.     ",
"                    .XXXXXXXXXXXXXXoXoXoXo.     ",
"                   .XXXXXXXXXXXXXXoXoXoXoo.     ",
"                  .XXXXXXXXXXXXXXoXoXoXooo.     ",
"                 .XXXXXXXXXXXXXXoXoXoXooooO     ",
"                .XXXXXXXXXXXXXXoXoXoXooooOO     ",
"               .XXXXXXXXXXXXXXoXoXoXooooOOO     ",
"              .......XXXXXXXXoXoXoXooooOOOO     ",
"             .+++++++..XXXXXoXoXoXooooOOOOO     ",
"            .++++++++++.XXXoXoXoXooooOOOOOO     ",
"           .++++++++++++.XoXoXoXooooOOOOOOO     ",
"           .+++++++++++++.XoXoXooooOOOoOOOO     ",
"          .++++++++++++++.oXoXooooOOOooOOOO     ",
"          .++++++++++++++..oXooooOOOoooOOOO     ",
"         .++++++++++++++.+.XooooOOOooooOOOO     ",
"         .+++++++++++++.++.ooooOOOoooooOOOO     ",
"         .++++++++++++.+++.oooOOOooooooOOO      ",
"         .+++++++++++.++++.oooOOoooooooOO       ",
"         .++++++++++.+++++.oooOooooooo.O        ",
"         .+++++++++.++++++.oooooooooo.          ",
"         .++++++++.+++++++.ooooooooo.           ",
"         .+++++++.++++++++.oooooooo.            ",
"         .++++++.+++++++++.ooooooo.@            ",
"         .+++++.++++++++++.oooooo.#@            ",
"         .++++.+++++++++++.ooooo.##@            ",
"         .+++.++++++++++++.oooo.###@            ",
"         .++.+++++++++++++.ooo.####@            ",
"         .+.++++++++++++++.oo.#####@            ",
"         ..+++++++++++++++.o.######@            ",
"         ...................@######@            ",
"         .XXXXXXXXXXXXXX...@@######@            ",
"        .XXXXXXXXXXXXXX.@@@@@######@            ",
"       .XXXXXXXXXXXXXX.@@@@@@######@            ",
"      .XXXXXXXXXXXXXX.@@@@@@@######@            ",
"     .XXXXXXXXXXXXXX.@@@@@@@@######@            ",
"    .XXXXXXXXXXXXXX. @@@@@@@@######@            ",
"   .XXXXXXXXXXXXXX.  @@@@@@@@######@            ",
"   .XXXXXXXXXXXXX.   @@@@@@@@######@            ",
"   .XXXXXXXXXXXX.    @@@@@@@@######@            ",
"   .XXXXXXXXXX..     @@@@@@@@######@            ",
"    .XXXXXXX..       @@@@@@@@######@            ",
"     .......         @@@@@@@@######@            ",
"                     @@@@@@@@######@            "};
