/* XPM */
static char * system_closed_new_mail_xpm [] = {
"48 48 7 1",
"   s mask  m none  c none",
".  m black  c black",
"X  m white  c #d3d3d3",
"o  m black  c red",
"O  m white  c gray",
"+  m black  c #8b7355",
"@  m white  c #d2b48c",
"                          .XXXXXXoooXXXX.       ",
"                         .XXXXXXoooooXXXO.      ",
"                        .XXXXXXooooooXXOX.      ",
"                       .XXXXXXoooooooXOXOX.     ",
"                      .XXXXXXXooooooXOXOXO.     ",
"                     .XXXXXXXXoooooXOXOXOX.     ",
"                    .XXXXXXXXXooooXOXOXOXO.     ",
"                   .XXXXXXXXXXoooXOXOXOXOO.     ",
"                  .XXXXXXXXXXXoooOXOXOXOOO.     ",
"                 .XXXXXXXXXXXXoooXOXOXOOOO.     ",
"                .XXXXXXXXXXXXXoooOXOXOOOOO.     ",
"               .XXXXXXXXXXXXXXoooXOXOOOOOO.     ",
"              .......XXXXXXXXOoooOXOOOOOOO.     ",
"             .OOOOOOO..XXXXXOXoooXOOOOOOOO.     ",
"            .OOOOOOOOOO.XXXOXOoooOOOOOOOOO.     ",
"           .OOOOOOOOOOOO.XOXOXoooOOOOOOOOO.     ",
"          .OOOOOOOOOOOOOO.XOXOoooOOOOOOOOO.     ",
"          .OOOOOOOOOOOOOO.OXOXoooOOOOOOOOO.     ",
"         .OOOOOOOOOOOOOOOO.OXOoooOOOOOOOOO.     ",
"         .OOOO.......OOOOO.XOOoooOOOOOOOOO.     ",
"         .OOOOOO...OOOOOOO.OOOoooOOOOOOOO.      ",
"         .OOOOOOOOOOOOOOOO.OOOoooOOOOOOO.       ",
"         .OOOOOOOOOOOOOOOO.OOOooOOOOOOO.        ",
"         .OOOOOOOOOOOOOOOO.OOOoOOOOOOO.         ",
"         .OOOOOOOOOOOOOOOO.OOOOOOOOOO.          ",
"         .OOOOOOOOOOOOOOOO.OOOOOOOOO.           ",
"         .OOOOOOOOOOOOOOOO.OOOOOOOO.            ",
"         .OOOOOOOOOOOOOOOO.OOOOOOO.+            ",
"         .OOOOOOOOOOOOOOOO.OOOOOO.@+            ",
"         .OOOOOOOOOOOOOOOO.OOOOO.@@+            ",
"         .OOOOOOOOOOOOOOOO.OOOO.@@@+            ",
"         .OOOOOOOOOOOOOOOO.OOO.@@@@+            ",
"         .OOOOOOOOOOOOOOOO.OO.@@@@@+            ",
"         .OOOOOOOOOOOOOOOO.O.@@@@@@+            ",
"         .OOOOOOOOOOOOOOOO..+@@@@@@+            ",
"         ..................++@@@@@@+            ",
"                     ++++++++@@@@@@+            ",
"                     ++++++++@@@@@@+            ",
"                     ++++++++@@@@@@+            ",
"                     ++++++++@@@@@@+            ",
"                     ++++++++@@@@@@+            ",
"                     ++++++++@@@@@@+            ",
"                     ++++++++@@@@@@+            ",
"                     ++++++++@@@@@@+            ",
"                     ++++++++@@@@@@+            ",
"                     ++++++++@@@@@@+            ",
"                     ++++++++@@@@@@+            ",
"                     ++++++++@@@@@@+            "};
