/* XPM */
static char * system_open_new_mail_xpm [] = {
"48 48 9 1",
"   s mask  m none  c none",
".  m black  c black",
"X  m white  c #d3d3d3",
"o  m black  c #ff0000",
"O  m white  c gray",
"+  m white  c #999999",
"@  m white  c white",
"#  m black  c #8b7355",
"$  m white  c #d2b48c",
"                          .XXXXXXoooXXX..       ",
"                         .XXXXXXoooooXXX..      ",
"                        .XXXXXXooooooXXOX.      ",
"                       .XXXXXXoooooooXOXO..     ",
"                      .XXXXXXXooooooXOXOXO.     ",
"                     .XXXXXXXXoooooXOXOXOX.     ",
"                    .XXXXXXXXXooooXOXOXOXO.     ",
"                   .XXXXXXXXXXoooXOXOXOXOO.     ",
"                  .XXXXXXXXXXXoooOXOXOXOOO.     ",
"                 .XXXXXXXXXXXXoooXOXOXOOOO.     ",
"                .XXXXXXXXXXXXXoooOXOXOOOOO.     ",
"               .XXXXXXXXXXXXXXoooXOXOOOOOO.     ",
"              .......XXXXXXXXOoooOXOOOOOOO.     ",
"             .+++++....XXXXXOXoooXOOOOOOOO.     ",
"            .+++++..@@@.XXXOXOoooOOOOOOOOO.     ",
"           .+++++..@@@@@.XOXOXoooOOOOOOOOO.     ",
"           .++++..@@@@@...XOXOoooOOOOOOOOO.     ",
"          .++++..@@@@@..@.OXOXoooOOOOOOOOO.     ",
"          .+++..@@@@@..@@@.OXOoooOOOOOOOOO.     ",
"         .+++..@@@@@..@@@@.XOOoooOOOOOOOO..     ",
"         .++..@@@@@..@@@@@.OOOoooOOOOOOO..      ",
"         .+..@@@@@..@@@@@@.OOOoooOOOOOO..       ",
"         ...@@@@@..@@@@@@@.OOOooOOOOOO..        ",
"         ..@@@@@..@@@@@@@@.OOOoOOOOOO..         ",
"        ..@@@@@..@@@@@@.@@.OOOOOOOOO..          ",
"       ..@@@@@..@@@@@@.@.@.OOOOOOOO..           ",
"       .@@@@@..@@@@@@.@.@@.OOOOOOO..            ",
"       .@@@@..@@.@@@.@.@@@.OOOOOO..#            ",
"       .@@@@.@@.@.@.@.@@@..OOOOO..$#            ",
"       .@@@@.@.@.@@@.@@@...OOOO..$$#            ",
"       .@@@@.@@.@@@.@@@..+.OOO..$$$#            ",
"       .@@@@.@.@@@@@@@..++.OO..$$$$#            ",
"       .@@@@.@@@@@@@@..+++.O..$$$$$#            ",
"       .@@@@.@@@@@@@..++++...$$$$$$#            ",
"       .@@@@.@@@@@@.........#$$$$$$#            ",
"       .@@@@.@@@@@..XXXX...##$$$$$$#            ",
"       .@@@@.@@@@..XXXX.#####$$$$$$#            ",
"       .@@@..@@@..XXXX.######$$$$$$#            ",
"      ..@@...@@..XXXX.#######$$$$$$#            ",
"     .X.@..X.@..XXXX.########$$$$$$#            ",
"    .XX...XX...XXXX. ########$$$$$$#            ",
"   .XXX..XXX..XXXX.  ########$$$$$$#            ",
"   .XXX.XXXX.XXXX.   ########$$$$$$#            ",
"   .XXXXXXXXXXXX.    ########$$$$$$#            ",
"   .XXXXXXXXXX..     ########$$$$$$#            ",
"    .XXXXXXX..       ########$$$$$$#            ",
"     .......         ########$$$$$$#            ",
"                     ########$$$$$$#            "};
