/* XPM */
static char * unread_mime_xpm [] = {
"24 16 9 1",
"   s mask  m none  c none",
".  m black  c black",
"X  m white  c green",
"o  m white  c yellow",
"O  m white  c cyan",
"+  m white  c magenta",
"@  m white  c blue",
"#  m black  c white",
"$  m white  c red",
"          ....          ",
"       ...XXXX...       ",
"    ...oooXXXXOOO...    ",
" ...++oooooXXXXOOO@O... ",
".++++oooooXXXXOOOOO@O@O.",
"........................",
".++++oooooXXXXOOOOO@O@O.",
".+.....ooooXXXXOOO@#$#@.",
".++++oooooXXXXOOOOO$#$O.",
".+.....ooooXXXXOOO@#$#@.",
".++++oooooXXXXOOOOO$#$O.",
".+++++o...........@O@O@.",
".++++oooooXXXXOOOOO@O@O.",
".+++++o...........@O@O@.",
".++++oooooXXXXOOOOO@O@O.",
"........................"};
