/* XPM */
static char * user_open_no_mail_xpm[] = {
"48 48 4 1",
" 	s mask m None	c None",
".	m Black	c black",
"X	m White	c #d2b48c",
"o	m White	c #f5deb3",
"                                                ",
"                                                ",
"                                                ",
"                                                ",
"                                                ",
"                                                ",
"                                                ",
"                                                ",
"                                                ",
"                                                ",
"                                                ",
"                              ........          ",
"                             .XXXXXXXX.         ",
"                            .XXXXXXXXXX.        ",
"                           .XXXXXXXXXXXX.       ",
"       ....................XXXXXXXXXXXXXX....   ",
"      .XXXXXXXXXXXXXXXXXXXXXXXXXXXXXXXXXXXXXX.  ",
"     .XXXXXXXXXXXXXXXXXXXXXXXXXXXXXXXXXXXXXXXX. ",
"     .XXXXXXXXXXXXXXXXXXXXXXXXXXXXXXXXXXXXXXXX. ",
"     .XXXXXXXXXXXXXXXXXXXXXXXXXXXXXXXXXXXXXXXX. ",
"     .XXXXXXXXXXXXXXXXXXXXXXXXXXXXXXXXXXXXXXXX. ",
"  .....................................XXXXXXX. ",
" .ooooooooooooooooooooooooooooooooooooo.XXXXXX. ",
" .oooooooooooooooooooooooooooooooooooooo.XXXXX. ",
" .oooooooooooooooooooooooooooooooooooooo.XXXXX. ",
" .ooooooooooooooooooooooooooooooooooooooo.XXXX. ",
"  .oooooooooooooooooooooooooooooooooooooo.XXXX. ",
"  .oooooooooooooooooooooooooooooooooooooo.XXXX. ",
"  .oooooooooooooooooooooooooooooooooooooo.XXXX. ",
"  .ooooooooooooooooooooooooooooooooooooooo.XXX. ",
"  .ooooooooooooooooooooooooooooooooooooooo.XXX. ",
"   .oooooooooooooooooooooooooooooooooooooo.XXX. ",
"   .oooooooooooooooooooooooooooooooooooooo.XXX. ",
"   .oooooooooooooooooooooooooooooooooooooo.XXX. ",
"   .ooooooooooooooooooooooooooooooooooooooo.XX. ",
"   .ooooooooooooooooooooooooooooooooooooooo.XX. ",
"    .oooooooooooooooooooooooooooooooooooooo.XX. ",
"    .oooooooooooooooooooooooooooooooooooooo.XX. ",
"    .oooooooooooooooooooooooooooooooooooooo.XX. ",
"    .ooooooooooooooooooooooooooooooooooooooo.X. ",
"    .ooooooooooooooooooooooooooooooooooooooo.X. ",
"     .oooooooooooooooooooooooooooooooooooooo.X. ",
"     .oooooooooooooooooooooooooooooooooooooo.X. ",
"     .oooooooooooooooooooooooooooooooooooooo.X. ",
"     .ooooooooooooooooooooooooooooooooooooooo.. ",
"     .ooooooooooooooooooooooooooooooooooooooo.. ",
"      ........................................  ",
"                                                "};
