/* XPM */
static char * user_closed_no_mail_xpm[] = {
"48 48 4 1",
" 	s mask m None	c None",
".	m Black	c black",
"X	m White	c #d2b48c",
"o	m White	c #f5deb3",
"                                                ",
"                                                ",
"                                                ",
"                                                ",
"                                                ",
"                                                ",
"                                                ",
"                                                ",
"                                                ",
"                                                ",
"                                                ",
"                              ........          ",
"                             .XXXXXXXX.         ",
"                            .XXXXXXXXXX.        ",
"                           .XXXXXXXXXXXX.       ",
"       ......................................   ",
"      .oooooooooooooooooooooooooooooooooooooo.  ",
"     .oooooooooooooooooooooooooooooooooooooooo. ",
"     .oooooooooooooooooooooooooooooooooooooooo. ",
"     .oooooooooooooooooooooooooooooooooooooooo. ",
"     .oooooooooooooooooooooooooooooooooooooooo. ",
"     .oooooooooooooooooooooooooooooooooooooooo. ",
"     .oooooooooooooooooooooooooooooooooooooooo. ",
"     .oooooooooooooooooooooooooooooooooooooooo. ",
"     .oooooooooooooooooooooooooooooooooooooooo. ",
"     .oooooooooooooooooooooooooooooooooooooooo. ",
"     .oooooooooooooooooooooooooooooooooooooooo. ",
"     .oooooooooooooooooooooooooooooooooooooooo. ",
"     .oooooooooooooooooooooooooooooooooooooooo. ",
"     .oooooooooooooooooooooooooooooooooooooooo. ",
"     .oooooooooooooooooooooooooooooooooooooooo. ",
"     .oooooooooooooooooooooooooooooooooooooooo. ",
"     .oooooooooooooooooooooooooooooooooooooooo. ",
"     .oooooooooooooooooooooooooooooooooooooooo. ",
"     .oooooooooooooooooooooooooooooooooooooooo. ",
"     .oooooooooooooooooooooooooooooooooooooooo. ",
"     .oooooooooooooooooooooooooooooooooooooooo. ",
"     .oooooooooooooooooooooooooooooooooooooooo. ",
"     .oooooooooooooooooooooooooooooooooooooooo. ",
"     .oooooooooooooooooooooooooooooooooooooooo. ",
"     .oooooooooooooooooooooooooooooooooooooooo. ",
"     .oooooooooooooooooooooooooooooooooooooooo. ",
"     .oooooooooooooooooooooooooooooooooooooooo. ",
"     .oooooooooooooooooooooooooooooooooooooooo. ",
"     .oooooooooooooooooooooooooooooooooooooooo. ",
"     .oooooooooooooooooooooooooooooooooooooooo. ",
"      ........................................  ",
"                                                "};
