/* XPM */
static char * user_open_new_mail_xpm [] = {
"48 48 5 1",
"   s mask  m None  c None",
".  m Black  c black",
"X  m white  c white",
"o  m White  c #d2b48c",
"O  m White  c #f5deb3",
"                                                ",
"                                                ",
"                                                ",
"            .............                       ",
"            .XXXXXXXXXXX.                       ",
"            .XXXXXXX.X.X.                       ",
"            .XXXXXXX.X.X.                       ",
"            .XXXXXXX.X.X.                       ",
"            .XXXXXXX.XXX.                       ",
"            .XXXXXXXXXXX.                       ",
"            .XXXXXXXXXXX.                       ",
"            .XXX.X.XXXXX.     ........          ",
"            .XXX.X.XXXXX.    .oooooooo.         ",
"            .XXX.X.XXXXX.   .oooooooooo.        ",
"            .XXX.X.XXXXX.  .oooooooooooo.       ",
"       ......XXX.X.XXXXX...oooooooooooooo....   ",
"      .ooooo.XXX.X.XXXXX.oooooooooooooooooooo.  ",
"     .oooooo.XXX.X.XXXXX.ooooooooooooooooooooo. ",
"     .oooooo.XXX.X.XXXXX.ooooooooooooooooooooo. ",
"     .oooooo.XXX.XXXXXXX.ooooooooooooooooooooo. ",
"     .oooooo.XXXXXXXXXXX.ooooooooooooooooooooo. ",
"  .....................................ooooooo. ",
" .OOOOOOOOOOOOOOOOOOOOOOOOOOOOOOOOOOOOO.oooooo. ",
" .OOOOOOOOOOOOOOOOOOOOOOOOOOOOOOOOOOOOOO.ooooo. ",
" .OOOOOOOOOOOOOOOOOOOOOOOOOOOOOOOOOOOOOO.ooooo. ",
" .OOOOOOOOOOOOOOOOOOOOOOOOOOOOOOOOOOOOOOO.oooo. ",
"  .OOOOOOOOOOOOOOOOOOOOOOOOOOOOOOOOOOOOOO.oooo. ",
"  .OOOOOOOOOOOOOOOOOOOOOOOOOOOOOOOOOOOOOO.oooo. ",
"  .OOOOOOOOOOOOOOOOOOOOOOOOOOOOOOOOOOOOOO.oooo. ",
"  .OOOOOOOOOOOOOOOOOOOOOOOOOOOOOOOOOOOOOOO.ooo. ",
"  .OOOOOOOOOOOOOOOOOOOOOOOOOOOOOOOOOOOOOOO.ooo. ",
"   .OOOOOOOOOOOOOOOOOOOOOOOOOOOOOOOOOOOOOO.ooo. ",
"   .OOOOOOOOOOOOOOOOOOOOOOOOOOOOOOOOOOOOOO.ooo. ",
"   .OOOOOOOOOOOOOOOOOOOOOOOOOOOOOOOOOOOOOO.ooo. ",
"   .OOOOOOOOOOOOOOOOOOOOOOOOOOOOOOOOOOOOOOO.oo. ",
"   .OOOOOOOOOOOOOOOOOOOOOOOOOOOOOOOOOOOOOOO.oo. ",
"    .OOOOOOOOOOOOOOOOOOOOOOOOOOOOOOOOOOOOOO.oo. ",
"    .OOOOOOOOOOOOOOOOOOOOOOOOOOOOOOOOOOOOOO.oo. ",
"    .OOOOOOOOOOOOOOOOOOOOOOOOOOOOOOOOOOOOOO.oo. ",
"    .OOOOOOOOOOOOOOOOOOOOOOOOOOOOOOOOOOOOOOO.o. ",
"    .OOOOOOOOOOOOOOOOOOOOOOOOOOOOOOOOOOOOOOO.o. ",
"     .OOOOOOOOOOOOOOOOOOOOOOOOOOOOOOOOOOOOOO.o. ",
"     .OOOOOOOOOOOOOOOOOOOOOOOOOOOOOOOOOOOOOO.o. ",
"     .OOOOOOOOOOOOOOOOOOOOOOOOOOOOOOOOOOOOOO.o. ",
"     .OOOOOOOOOOOOOOOOOOOOOOOOOOOOOOOOOOOOOOO.. ",
"     .OOOOOOOOOOOOOOOOOOOOOOOOOOOOOOOOOOOOOOO.. ",
"      ........................................  ",
"                                                "};
